<svg width="24" height="24" viewBox="0 0 24 24" fill="none" xmlns="http://www.w3.org/2000/svg">
<g clip-path="url(#clip0_3319_6454)">
<path d="M0.243 7.4438L10.553 13.6298C11 13.8978 11.5 14.0308 12.001 14.0308C12.502 14.0308 13.002 13.8968 13.449 13.6298L23.759 7.4438C23.909 7.3538 24.002 7.1908 24.002 7.0148C24.002 6.8388 23.91 6.6758 23.759 6.5858L13.448 0.400797C12.555 -0.136203 11.445 -0.136203 10.552 0.400797L0.243 6.5868C0.093 6.6768 0 6.8398 0 7.0158C0 7.1918 0.092 7.3548 0.243 7.4448V7.4438ZM11.067 1.2588C11.643 0.912797 12.358 0.912797 12.933 1.2588L22.528 7.0158L12.933 12.7728C12.358 13.1188 11.642 13.1188 11.067 12.7728L1.472 7.0158L11.067 1.2588ZM24 19.4998C24 19.7758 23.776 19.9998 23.5 19.9998H20V23.4998C20 23.7758 19.776 23.9998 19.5 23.9998C19.224 23.9998 19 23.7758 19 23.4998V19.9998H15.5C15.224 19.9998 15 19.7758 15 19.4998C15 19.2238 15.224 18.9998 15.5 18.9998H19V15.4998C19 15.2238 19.224 14.9998 19.5 14.9998C19.776 14.9998 20 15.2238 20 15.4998V18.9998H23.5C23.776 18.9998 24 19.2238 24 19.4998ZM23.929 10.3428C24.071 10.5788 23.994 10.8868 23.758 11.0288L12.258 17.9288C12.179 17.9768 12.09 17.9998 12.001 17.9998C11.912 17.9998 11.823 17.9768 11.744 17.9288L0.243 11.0278C0.006 10.8858 -0.07 10.5788 0.072 10.3418C0.214 10.1048 0.521 10.0258 0.758 10.1698L12.001 16.9158L23.244 10.1698C23.481 10.0248 23.788 10.1058 23.93 10.3418L23.929 10.3428ZM12.429 21.2568C12.335 21.4128 12.17 21.4998 12 21.4998C11.913 21.4998 11.824 21.4778 11.743 21.4288L0.243 14.5278C0.006 14.3858 -0.07 14.0788 0.072 13.8418C0.214 13.6048 0.521 13.5268 0.758 13.6698L12.258 20.5698C12.495 20.7118 12.571 21.0198 12.429 21.2568Z" fill="#808080"/>
</g>
<defs>
<clipPath id="clip0_3319_6454">
<rect width="24" height="24" fill="white"/>
</clipPath>
</defs>
</svg>
