<svg width="99" height="54" viewBox="0 0 99 54" fill="none" xmlns="http://www.w3.org/2000/svg">
<g filter="url(#filter0_d_3311_6458)">
<path d="M32.9528 34.7439C32.9511 34.752 32.9461 34.7752 32.9436 34.7824H32.8315V34.7755C32.8524 34.7741 32.8546 34.7724 32.8546 34.7515V34.6577C32.8546 34.637 32.8529 34.6353 32.8327 34.6342V34.627H32.8984V34.6342C32.8793 34.6356 32.8771 34.6367 32.8771 34.6577V34.7506C32.8771 34.7637 32.8782 34.7682 32.8829 34.7707C32.8876 34.7732 32.8959 34.7738 32.9054 34.7738C32.9181 34.7738 32.9267 34.7724 32.9323 34.766C32.9367 34.7615 32.9414 34.7534 32.9453 34.742L32.9528 34.7439Z" fill="#2D2D4C"/>
<path d="M33.0186 34.6758C33.0494 34.6758 33.0721 34.6998 33.0721 34.7288C33.0721 34.7673 33.043 34.7858 33.0183 34.7858C32.9836 34.7858 32.9636 34.7595 32.9636 34.7333C32.9636 34.6942 32.9955 34.6758 33.0186 34.6758ZM33.0155 34.6839C33.0016 34.6839 32.9886 34.6981 32.9886 34.7252C32.9886 34.7553 33.0016 34.7777 33.0211 34.7777C33.0349 34.7777 33.0477 34.7682 33.0477 34.7347C33.0477 34.7059 33.0363 34.6842 33.0161 34.6842H33.0155V34.6839Z" fill="#2D2D4C"/>
<path d="M33.1269 34.7006C33.1349 34.6875 33.1446 34.6747 33.156 34.6747C33.1649 34.6747 33.1707 34.6811 33.1707 34.6869C33.1707 34.6925 33.1674 34.6976 33.1624 34.6998C33.1593 34.7009 33.1574 34.7004 33.156 34.6992C33.1524 34.6959 33.1496 34.6942 33.1454 34.6942C33.1393 34.6942 33.1318 34.7012 33.1269 34.714V34.7567C33.1269 34.7724 33.128 34.774 33.1468 34.7754V34.7819H33.0891V34.7754C33.1038 34.774 33.1058 34.7724 33.1058 34.7567V34.7071C33.1058 34.692 33.1044 34.6909 33.0911 34.6889V34.6836C33.103 34.6816 33.1144 34.6789 33.1269 34.6738V34.7006Z" fill="#2D2D4C"/>
<path d="M33.2691 34.7618C33.2536 34.7816 33.2361 34.7858 33.2284 34.7858C33.1987 34.7858 33.1809 34.7618 33.1809 34.735C33.1809 34.7191 33.1867 34.7048 33.1964 34.6942C33.207 34.6828 33.22 34.6758 33.2328 34.6758H33.2331C33.2536 34.6758 33.2703 34.6936 33.2703 34.7126C33.2703 34.7171 33.2689 34.7193 33.2644 34.7204C33.26 34.721 33.2297 34.7235 33.2017 34.7246C33.2023 34.7556 33.2203 34.7687 33.237 34.7687C33.2469 34.7687 33.2561 34.7651 33.265 34.7567L33.2691 34.7618ZM33.2272 34.6847C33.2167 34.6847 33.2064 34.6939 33.2031 34.714C33.2159 34.714 33.2289 34.714 33.2422 34.7135C33.2464 34.7132 33.2481 34.7121 33.2481 34.709C33.2478 34.6964 33.24 34.6847 33.2272 34.6847Z" fill="#2D2D4C"/>
<path d="M33.4182 34.7835V34.7771C33.4318 34.7757 33.4345 34.7746 33.4345 34.7576V34.7191C33.4345 34.7012 33.4276 34.6914 33.4137 34.6914C33.4059 34.6914 33.3971 34.6959 33.3879 34.7034C33.3882 34.7065 33.3885 34.7093 33.3885 34.7135V34.7595C33.3885 34.7746 33.3907 34.776 33.404 34.7774V34.7838H33.3507V34.7774C33.3652 34.776 33.3674 34.7749 33.3674 34.759V34.7185C33.3674 34.7006 33.3607 34.6914 33.3468 34.6914C33.3377 34.6914 33.3288 34.6976 33.3216 34.7031V34.759C33.3216 34.7743 33.3238 34.7757 33.3346 34.7774V34.7838H33.2825V34.7774C33.298 34.776 33.3002 34.7743 33.3002 34.7587V34.7101C33.3002 34.695 33.2994 34.6934 33.2855 34.6914V34.6853C33.2961 34.6836 33.3094 34.6805 33.3208 34.6758V34.6953C33.326 34.692 33.3313 34.6875 33.3385 34.683C33.3449 34.6791 33.351 34.6766 33.3585 34.6766C33.3702 34.6766 33.3804 34.6839 33.3854 34.6962C33.3926 34.6909 33.3993 34.6864 33.4051 34.6825C33.4104 34.6791 33.4165 34.6763 33.4234 34.6763C33.4426 34.6763 33.4551 34.6895 33.4551 34.7137V34.759C33.4551 34.7749 33.4567 34.7754 33.4706 34.7774V34.7838H33.4182V34.7835Z" fill="#2D2D4C"/>
<path d="M33.5488 34.7827V34.7763C33.5638 34.7749 33.5658 34.7732 33.5658 34.7568V34.7087C33.5658 34.6937 33.5649 34.6926 33.5508 34.69V34.6842C33.5638 34.6819 33.576 34.6792 33.5868 34.675V34.7565C33.5868 34.7729 33.5885 34.7743 33.604 34.776V34.7824H33.5488V34.7827ZM33.5616 34.6423C33.5616 34.6345 33.5677 34.6289 33.5749 34.6289C33.5821 34.6289 33.5877 34.6348 33.5877 34.6423C33.5877 34.6493 33.5821 34.6551 33.5746 34.6551C33.5677 34.6551 33.5616 34.6493 33.5616 34.6423Z" fill="#2D2D4C"/>
<path d="M33.672 34.6802C33.6767 34.6775 33.6815 34.6763 33.6845 34.6763C33.7117 34.6763 33.7278 34.6978 33.7278 34.7218C33.7278 34.7573 33.6987 34.7805 33.6676 34.7863C33.6604 34.786 33.654 34.7841 33.6504 34.7824V34.814C33.6504 34.8315 33.652 34.8329 33.6709 34.8346V34.841H33.6118V34.8346C33.6274 34.8332 33.6296 34.8315 33.6296 34.8159V34.7079C33.6296 34.6928 33.6282 34.6922 33.6138 34.6903V34.6844C33.624 34.6828 33.6382 34.6786 33.6504 34.6738V34.6928L33.672 34.6802ZM33.6504 34.7651C33.6557 34.7704 33.6651 34.7743 33.6729 34.7743C33.6931 34.7743 33.7056 34.7562 33.7056 34.731C33.7056 34.7048 33.6903 34.6909 33.6734 34.6909C33.6662 34.6909 33.6568 34.6959 33.6504 34.7006V34.7651Z" fill="#2D2D4C"/>
<path d="M33.808 34.7073C33.8033 34.6934 33.7949 34.6833 33.783 34.6833C33.7741 34.6833 33.768 34.6897 33.768 34.6992C33.768 34.709 33.7772 34.7149 33.788 34.7191C33.8063 34.7263 33.8188 34.735 33.8188 34.752C33.8188 34.7743 33.7983 34.7855 33.7783 34.7855C33.7658 34.7855 33.7544 34.781 33.7503 34.7777C33.7486 34.7746 33.7464 34.7579 33.7461 34.7484L33.7528 34.7472C33.7572 34.7632 33.7683 34.7774 33.7824 34.7774C33.7913 34.7774 33.7991 34.7707 33.7991 34.7612C33.7991 34.7514 33.7927 34.7461 33.7805 34.7405C33.7666 34.7341 33.7497 34.726 33.7497 34.707C33.7497 34.69 33.7644 34.6758 33.7872 34.6758C33.7977 34.6758 33.8041 34.678 33.8091 34.68C33.8113 34.6853 33.8141 34.6998 33.8146 34.7057L33.808 34.7073Z" fill="#2D2D4C"/>
<path d="M33.9529 34.776C33.9474 34.7766 33.9405 34.7782 33.9338 34.7796C33.9271 34.7813 33.9208 34.783 33.9155 34.7844L33.9138 34.783V34.7659C33.9083 34.7701 33.9036 34.774 33.8966 34.7782C33.8894 34.7821 33.8841 34.7844 33.8775 34.7844C33.8605 34.7844 33.8469 34.7743 33.8469 34.7486V34.7031C33.8469 34.69 33.845 34.6889 33.8389 34.6875L33.8325 34.6858V34.68C33.8375 34.6797 33.8439 34.6789 33.8508 34.6783C33.8578 34.6775 33.8647 34.6763 33.8691 34.6758C33.8686 34.683 33.8686 34.6945 33.8686 34.7104V34.7425C33.8686 34.7623 33.8786 34.7687 33.8894 34.7687C33.8977 34.7687 33.9066 34.7654 33.9144 34.7581V34.7031C33.9144 34.69 33.9122 34.6886 33.9044 34.6872L33.8958 34.6858V34.68C33.9027 34.6797 33.9113 34.6789 33.9185 34.678C33.9258 34.6775 33.9316 34.6763 33.9352 34.6758V34.7545C33.9352 34.7671 33.9371 34.7685 33.9466 34.7693L33.9529 34.7696V34.776Z" fill="#2D2D4C"/>
<path d="M34.0978 34.7835V34.7771C34.1114 34.7757 34.1142 34.7746 34.1142 34.7576V34.7191C34.1142 34.7012 34.1073 34.6914 34.0934 34.6914C34.0856 34.6914 34.0768 34.6959 34.0676 34.7034C34.0679 34.7065 34.0682 34.7093 34.0682 34.7135V34.7595C34.0682 34.7746 34.0704 34.776 34.0837 34.7774V34.7838H34.0304V34.7774C34.0448 34.776 34.0471 34.7749 34.0471 34.759V34.7185C34.0471 34.7006 34.0404 34.6914 34.0265 34.6914C34.0174 34.6914 34.0085 34.6976 34.0013 34.7031V34.759C34.0013 34.7743 34.0035 34.7757 34.0143 34.7774V34.7838H33.9622V34.7774C33.9777 34.776 33.9799 34.7743 33.9799 34.7587V34.7101C33.9799 34.695 33.9791 34.6934 33.9652 34.6914V34.6853C33.9758 34.6836 33.9891 34.6805 34.0005 34.6758V34.6953C34.0057 34.692 34.011 34.6875 34.0182 34.683C34.0246 34.6791 34.0307 34.6766 34.0382 34.6766C34.0498 34.6766 34.0601 34.6839 34.0651 34.6962C34.0723 34.6909 34.079 34.6864 34.0848 34.6825C34.0901 34.6791 34.0962 34.6763 34.1031 34.6763C34.1223 34.6763 34.1347 34.6895 34.1347 34.7137V34.759C34.1347 34.7749 34.1364 34.7754 34.1503 34.7774V34.7838H34.0978V34.7835Z" fill="#2D2D4C"/>
<path d="M13.8641 20.2051H11.1042V46.0005H13.8641V20.2051Z" fill="#2D2D4C"/>
<path d="M5.95151 28.7404L4 26.7772L30.6169 0L44.1212 13.5857H46.0641V5.94254H54.8738V13.4729H64.5504V16.2493H52.114V8.71897H48.824V16.3621H42.978L30.6169 3.92652L5.95151 28.7404Z" fill="#2D2D4C"/>
</g>
<path d="M30.4844 36.7891L26.4364 25.9251L26.3244 25.5891H27.6844L31.9404 36.6611V36.7891H30.4844ZM22.0684 36.7891V36.6611L26.3244 25.5891H27.6844L27.5724 25.9251L23.5244 36.7891H22.0684ZM23.7164 33.9091L24.1964 32.5811H29.9724L30.4524 33.9091H23.7164ZM33.0924 36.7891V28.7731H34.4044V31.0291L34.0204 30.7891C34.2124 30.1704 34.5698 29.6797 35.0924 29.3171C35.6151 28.9544 36.2018 28.7731 36.8524 28.7731H37.6684V30.0531H36.6444C36.2071 30.0531 35.8231 30.1597 35.4924 30.3731C35.1724 30.5757 34.9164 30.8637 34.7244 31.2371C34.5431 31.5997 34.4524 32.0264 34.4524 32.5171V36.7891H33.0924ZM42.1764 36.9971C41.3764 36.9971 40.6724 36.8211 40.0644 36.4691C39.4564 36.1064 38.9818 35.6104 38.6404 34.9811C38.2991 34.3517 38.1284 33.6157 38.1284 32.7731C38.1284 31.9411 38.2991 31.2104 38.6404 30.5811C38.9818 29.9411 39.4564 29.4451 40.0644 29.0931C40.6724 28.7411 41.3764 28.5651 42.1764 28.5651C42.7844 28.5651 43.3284 28.6771 43.8084 28.9011C44.2991 29.1144 44.7151 29.4237 45.0564 29.8291C45.4084 30.2237 45.6698 30.7091 45.8404 31.2851L44.6564 31.6211H44.4804C44.2991 31.0771 44.0004 30.6504 43.5844 30.3411C43.1791 30.0211 42.7098 29.8611 42.1764 29.8611C41.6324 29.8611 41.1578 29.9837 40.7524 30.2291C40.3578 30.4744 40.0484 30.8157 39.8244 31.2531C39.6004 31.6904 39.4884 32.1971 39.4884 32.7731C39.4884 33.3491 39.6004 33.8611 39.8244 34.3091C40.0484 34.7464 40.3578 35.0877 40.7524 35.3331C41.1578 35.5784 41.6324 35.7011 42.1764 35.7011C42.5498 35.7011 42.8911 35.6317 43.2004 35.4931C43.5098 35.3544 43.7764 35.1517 44.0004 34.8851C44.2351 34.6184 44.4164 34.3037 44.5444 33.9411H44.7204L45.9204 34.2771C45.7284 34.8531 45.4511 35.3491 45.0884 35.7651C44.7258 36.1704 44.2991 36.4797 43.8084 36.6931C43.3284 36.8957 42.7844 36.9971 42.1764 36.9971ZM47.5456 36.7891V28.7731H48.9056V36.7891H47.5456ZM48.2336 27.2851C47.9669 27.2851 47.7429 27.1944 47.5616 27.0131C47.3802 26.8317 47.2896 26.6077 47.2896 26.3411C47.2896 26.0744 47.3802 25.8504 47.5616 25.6691C47.7429 25.4771 47.9669 25.3811 48.2336 25.3811C48.5002 25.3811 48.7242 25.4771 48.9056 25.6691C49.0976 25.8504 49.1936 26.0744 49.1936 26.3411C49.1936 26.6077 49.0976 26.8317 48.9056 27.0131C48.7242 27.1944 48.5002 27.2851 48.2336 27.2851ZM55.0764 36.9971C54.3298 36.9971 53.6471 36.8584 53.0284 36.5811C52.4204 36.3037 51.9084 35.9144 51.4924 35.4131C51.0871 34.9117 50.8151 34.3304 50.6764 33.6691L51.9404 33.3651L52.1164 33.3971C52.2338 33.8237 52.4364 34.2131 52.7244 34.5651C53.0124 34.9064 53.3591 35.1784 53.7644 35.3811C54.1804 35.5837 54.6178 35.6851 55.0764 35.6851C55.5778 35.6851 56.0151 35.6051 56.3884 35.4451C56.7724 35.2851 57.0711 35.0611 57.2844 34.7731C57.5084 34.4851 57.6204 34.1544 57.6204 33.7811C57.6204 33.2797 57.4764 32.8957 57.1884 32.6291C56.9111 32.3624 56.5218 32.1597 56.0204 32.0211L53.8604 31.4291C52.9751 31.1837 52.3031 30.7944 51.8444 30.2611C51.3858 29.7277 51.1564 29.1144 51.1564 28.4211C51.1564 27.8237 51.3111 27.3011 51.6204 26.8531C51.9298 26.3944 52.3564 26.0371 52.9004 25.7811C53.4551 25.5144 54.0951 25.3811 54.8204 25.3811C55.5138 25.3811 56.1431 25.5144 56.7084 25.7811C57.2844 26.0371 57.7538 26.3997 58.1164 26.8691C58.4898 27.3384 58.7351 27.8931 58.8524 28.5331L57.6204 28.8051L57.4444 28.7731C57.3058 28.1331 56.9964 27.6264 56.5164 27.2531C56.0471 26.8797 55.4764 26.6931 54.8044 26.6931C54.1431 26.6931 53.6098 26.8531 53.2044 27.1731C52.7991 27.4824 52.5964 27.8984 52.5964 28.4211C52.5964 28.8371 52.7404 29.1837 53.0284 29.4611C53.3164 29.7384 53.7324 29.9517 54.2764 30.1011L56.4204 30.6931C57.2631 30.9277 57.9138 31.3011 58.3724 31.8131C58.8311 32.3251 59.0604 32.9544 59.0604 33.7011C59.0604 34.3624 58.8951 34.9384 58.5644 35.4291C58.2338 35.9197 57.7698 36.3037 57.1724 36.5811C56.5751 36.8584 55.8764 36.9971 55.0764 36.9971ZM65.0326 36.9971C64.4779 36.9971 63.9659 36.8851 63.4966 36.6611C63.0379 36.4264 62.6432 36.1117 62.3126 35.7171C61.9926 35.3224 61.7579 34.8744 61.6086 34.3731V31.1731C61.7579 30.6611 61.9926 30.2131 62.3126 29.8291C62.6432 29.4344 63.0379 29.1251 63.4966 28.9011C63.9659 28.6771 64.4779 28.5651 65.0326 28.5651C65.7579 28.5651 66.4032 28.7464 66.9686 29.1091C67.5339 29.4717 67.9872 29.9731 68.3286 30.6131C68.6699 31.2424 68.8406 31.9624 68.8406 32.7731C68.8406 33.5944 68.6699 34.3251 68.3286 34.9651C67.9872 35.5944 67.5339 36.0904 66.9686 36.4531C66.4032 36.8157 65.7579 36.9971 65.0326 36.9971ZM60.9206 39.9891V28.7731H62.2326V31.6371L61.9926 32.7731L62.2806 33.9251V39.9891H60.9206ZM64.9366 35.7011C65.4272 35.7011 65.8646 35.5784 66.2486 35.3331C66.6326 35.0771 66.9312 34.7304 67.1446 34.2931C67.3686 33.8557 67.4806 33.3491 67.4806 32.7731C67.4806 32.1971 67.3686 31.6904 67.1446 31.2531C66.9312 30.8157 66.6326 30.4744 66.2486 30.2291C65.8646 29.9837 65.4272 29.8611 64.9366 29.8611C64.4246 29.8611 63.9659 29.9837 63.5606 30.2291C63.1659 30.4744 62.8512 30.8157 62.6166 31.2531C62.3926 31.6904 62.2806 32.1971 62.2806 32.7731C62.2806 33.3491 62.3926 33.8557 62.6166 34.2931C62.8512 34.7304 63.1659 35.0771 63.5606 35.3331C63.9659 35.5784 64.4246 35.7011 64.9366 35.7011ZM73.0736 36.9971C72.5189 36.9971 72.0229 36.8904 71.5856 36.6771C71.1589 36.4637 70.8229 36.1704 70.5776 35.7971C70.3322 35.4131 70.2096 34.9757 70.2096 34.4851C70.2096 33.7811 70.4602 33.2104 70.9616 32.7731C71.4736 32.3357 72.1776 32.0797 73.0736 32.0051L76.1616 31.7811V32.9971L73.3456 33.2211C72.7589 33.2637 72.3216 33.3917 72.0336 33.6051C71.7562 33.8077 71.6176 34.0957 71.6176 34.4691C71.6176 34.8211 71.7669 35.1144 72.0656 35.3491C72.3642 35.5837 72.7482 35.7011 73.2176 35.7011C73.6976 35.7011 74.1349 35.5891 74.5296 35.3651C74.9242 35.1411 75.2336 34.8424 75.4576 34.4691C75.6922 34.0957 75.8096 33.6797 75.8096 33.2211V31.9251C75.8096 31.3171 75.6176 30.8157 75.2336 30.4211C74.8602 30.0264 74.3589 29.8291 73.7296 29.8291C73.2389 29.8291 72.8176 29.9517 72.4656 30.1971C72.1136 30.4317 71.8736 30.7624 71.7456 31.1891H71.5696L70.3856 30.8051C70.6202 30.0904 71.0309 29.5357 71.6176 29.1411C72.2042 28.7464 72.9136 28.5491 73.7456 28.5491C74.8336 28.5491 75.6709 28.8744 76.2576 29.5251C76.8549 30.1757 77.1536 31.0931 77.1536 32.2771V36.7891H75.8736V34.4531L76.3536 34.7091C76.2256 35.1464 75.9962 35.5411 75.6656 35.8931C75.3456 36.2344 74.9616 36.5064 74.5136 36.7091C74.0762 36.9011 73.5962 36.9971 73.0736 36.9971ZM82.8483 36.9971C82.0483 36.9971 81.3443 36.8211 80.7363 36.4691C80.1283 36.1064 79.6537 35.6104 79.3123 34.9811C78.971 34.3517 78.8003 33.6157 78.8003 32.7731C78.8003 31.9411 78.971 31.2104 79.3123 30.5811C79.6537 29.9411 80.1283 29.4451 80.7363 29.0931C81.3443 28.7411 82.0483 28.5651 82.8483 28.5651C83.4563 28.5651 84.0003 28.6771 84.4803 28.9011C84.971 29.1144 85.387 29.4237 85.7283 29.8291C86.0803 30.2237 86.3417 30.7091 86.5123 31.2851L85.3283 31.6211H85.1523C84.971 31.0771 84.6723 30.6504 84.2563 30.3411C83.851 30.0211 83.3817 29.8611 82.8483 29.8611C82.3043 29.8611 81.8297 29.9837 81.4243 30.2291C81.0297 30.4744 80.7203 30.8157 80.4963 31.2531C80.2723 31.6904 80.1603 32.1971 80.1603 32.7731C80.1603 33.3491 80.2723 33.8611 80.4963 34.3091C80.7203 34.7464 81.0297 35.0877 81.4243 35.3331C81.8297 35.5784 82.3043 35.7011 82.8483 35.7011C83.2217 35.7011 83.563 35.6317 83.8723 35.4931C84.1817 35.3544 84.4483 35.1517 84.6723 34.8851C84.907 34.6184 85.0883 34.3037 85.2163 33.9411H85.3923L86.5923 34.2771C86.4003 34.8531 86.123 35.3491 85.7603 35.7651C85.3977 36.1704 84.971 36.4797 84.4803 36.6931C84.0003 36.8957 83.4563 36.9971 82.8483 36.9971ZM91.7214 36.9971C90.9428 36.9971 90.2548 36.8211 89.6574 36.4691C89.0601 36.1064 88.5908 35.6104 88.2494 34.9811C87.9188 34.3517 87.7534 33.6157 87.7534 32.7731C87.7534 31.9411 87.9188 31.2104 88.2494 30.5811C88.5801 29.9411 89.0388 29.4451 89.6254 29.0931C90.2228 28.7411 90.9054 28.5651 91.6734 28.5651C92.4308 28.5651 93.0921 28.7464 93.6574 29.1091C94.2334 29.4611 94.6814 29.9624 95.0014 30.6131C95.3214 31.2637 95.4814 32.0211 95.4814 32.8851V33.0771L95.2414 33.3011H88.5054V32.0371H94.7454L94.1054 32.2931C94.0734 31.7811 93.9454 31.3437 93.7214 30.9811C93.4974 30.6184 93.2094 30.3411 92.8574 30.1491C92.5054 29.9464 92.1108 29.8451 91.6734 29.8451C91.2041 29.8451 90.7721 29.9624 90.3774 30.1971C89.9828 30.4211 89.6734 30.7411 89.4494 31.1571C89.2254 31.5731 89.1134 32.0531 89.1134 32.5971V32.9171C89.1134 33.4504 89.2254 33.9304 89.4494 34.3571C89.6734 34.7731 89.9828 35.1037 90.3774 35.3491C90.7721 35.5944 91.2201 35.7171 91.7214 35.7171C92.2121 35.7171 92.6388 35.5997 93.0014 35.3651C93.3641 35.1197 93.6468 34.7891 93.8494 34.3731H94.0414L95.1614 34.8691C94.8628 35.5304 94.4094 36.0531 93.8014 36.4371C93.2041 36.8104 92.5108 36.9971 91.7214 36.9971Z" fill="#2D2D4C"/>
<defs>
<filter id="filter0_d_3311_6458" x="0" y="0" width="68.5503" height="54" filterUnits="userSpaceOnUse" color-interpolation-filters="sRGB">
<feFlood flood-opacity="0" result="BackgroundImageFix"/>
<feColorMatrix in="SourceAlpha" type="matrix" values="0 0 0 0 0 0 0 0 0 0 0 0 0 0 0 0 0 0 127 0" result="hardAlpha"/>
<feOffset dy="4"/>
<feGaussianBlur stdDeviation="2"/>
<feComposite in2="hardAlpha" operator="out"/>
<feColorMatrix type="matrix" values="0 0 0 0 0 0 0 0 0 0 0 0 0 0 0 0 0 0 0.25 0"/>
<feBlend mode="normal" in2="BackgroundImageFix" result="effect1_dropShadow_3311_6458"/>
<feBlend mode="normal" in="SourceGraphic" in2="effect1_dropShadow_3311_6458" result="shape"/>
</filter>
</defs>
</svg>
