<svg width="15" height="9" viewBox="0 0 15 9" fill="none" xmlns="http://www.w3.org/2000/svg">
<path d="M14.2101 1.20986C14.1171 1.11613 14.0065 1.04174 13.8846 0.990969C13.7628 0.940201 13.6321 0.914062 13.5001 0.914062C13.368 0.914062 13.2373 0.940201 13.1155 0.990969C12.9936 1.04174 12.883 1.11613 12.7901 1.20986L8.21006 5.78986C8.1171 5.88359 8.0065 5.95798 7.88464 6.00875C7.76278 6.05952 7.63207 6.08566 7.50006 6.08566C7.36805 6.08566 7.23734 6.05952 7.11548 6.00875C6.99362 5.95798 6.88302 5.88359 6.79006 5.78986L2.21006 1.20986C2.1171 1.11613 2.0065 1.04174 1.88464 0.990969C1.76278 0.940201 1.63207 0.914062 1.50006 0.914062C1.36805 0.914062 1.23734 0.940201 1.11548 0.990969C0.993624 1.04174 0.883023 1.11613 0.79006 1.20986C0.603809 1.39722 0.499268 1.65067 0.499268 1.91486C0.499268 2.17905 0.603809 2.4325 0.79006 2.61986L5.38006 7.20986C5.94256 7.77166 6.70506 8.08722 7.50006 8.08722C8.29506 8.08722 9.05756 7.77166 9.62006 7.20986L14.2101 2.61986C14.3963 2.4325 14.5009 2.17905 14.5009 1.91486C14.5009 1.65067 14.3963 1.39722 14.2101 1.20986Z" fill="black"/>
</svg>
