<svg width="12" height="22" viewBox="0 0 12 22" fill="none" xmlns="http://www.w3.org/2000/svg">
<mask id="path-1-inside-1_513_990" fill="white">
<path d="M0.91068 0.933811C0.770803 1.07326 0.659779 1.23915 0.584014 1.42194C0.508248 1.60473 0.469241 1.80079 0.469241 1.99881C0.469241 2.19683 0.508248 2.39289 0.584013 2.57567C0.659779 2.75846 0.770802 2.92436 0.910679 3.06381L7.7457 9.93381C7.88558 10.0733 7.9966 10.2392 8.07237 10.4219C8.14813 10.6047 8.18714 10.8008 8.18714 10.9988C8.18714 11.1968 8.14813 11.3929 8.07237 11.5757C7.9966 11.7585 7.88558 11.9244 7.7457 12.0638L0.910677 18.9338C0.7708 19.0733 0.659777 19.2392 0.584011 19.4219C0.508246 19.6047 0.469239 19.8008 0.469238 19.9988C0.469238 20.1968 0.508246 20.3929 0.584011 20.5757C0.659776 20.7585 0.7708 20.9244 0.910677 21.0638C1.19029 21.3432 1.56853 21.5 1.96279 21.5C2.35705 21.5 2.7353 21.3432 3.01491 21.0638L9.86486 14.1788C10.7033 13.3351 11.1742 12.1913 11.1742 10.9988C11.1742 9.80631 10.7033 8.66256 9.86486 7.81881L3.01491 0.933812C2.7353 0.654435 2.35706 0.49762 1.9628 0.49762C1.56853 0.49762 1.19029 0.654434 0.91068 0.933811Z"/>
</mask>
<path d="M0.91068 0.933811C0.770803 1.07326 0.659779 1.23915 0.584014 1.42194C0.508248 1.60473 0.469241 1.80079 0.469241 1.99881C0.469241 2.19683 0.508248 2.39289 0.584013 2.57567C0.659779 2.75846 0.770802 2.92436 0.910679 3.06381L7.7457 9.93381C7.88558 10.0733 7.9966 10.2392 8.07237 10.4219C8.14813 10.6047 8.18714 10.8008 8.18714 10.9988C8.18714 11.1968 8.14813 11.3929 8.07237 11.5757C7.9966 11.7585 7.88558 11.9244 7.7457 12.0638L0.910677 18.9338C0.7708 19.0733 0.659777 19.2392 0.584011 19.4219C0.508246 19.6047 0.469239 19.8008 0.469238 19.9988C0.469238 20.1968 0.508246 20.3929 0.584011 20.5757C0.659776 20.7585 0.7708 20.9244 0.910677 21.0638C1.19029 21.3432 1.56853 21.5 1.96279 21.5C2.35705 21.5 2.7353 21.3432 3.01491 21.0638L9.86486 14.1788C10.7033 13.3351 11.1742 12.1913 11.1742 10.9988C11.1742 9.80631 10.7033 8.66256 9.86486 7.81881L3.01491 0.933812C2.7353 0.654435 2.35706 0.49762 1.9628 0.49762C1.56853 0.49762 1.19029 0.654434 0.91068 0.933811Z" fill="white"/>
<path d="M0.910679 3.06381L16.0341 -11.9826L16.0032 -12.0136L15.9723 -12.0445L0.910679 3.06381ZM7.7457 9.93381L-7.37769 24.9802L-7.34685 25.0112L-7.31587 25.0421L7.7457 9.93381ZM7.7457 12.0638L-7.31587 -3.04447L-7.34684 -3.01359L-7.37769 -2.98259L7.7457 12.0638ZM0.910677 18.9338L15.9722 34.0421L16.0032 34.0112L16.0341 33.9802L0.910677 18.9338ZM0.910677 21.0638L15.9892 5.97249L15.9808 5.96401L15.9723 5.95553L0.910677 21.0638ZM1.96279 21.5L1.96279 42.8333L1.96279 21.5ZM3.01491 21.0638L18.0935 36.1551L18.1159 36.1327L18.1383 36.1102L3.01491 21.0638ZM9.86486 14.1788L24.9883 29.2252L24.9976 29.2158L9.86486 14.1788ZM11.1742 10.9988L32.5075 10.9988L11.1742 10.9988ZM9.86486 7.81881L24.9976 -7.21818L24.9883 -7.22759L9.86486 7.81881ZM3.01491 0.933812L18.1383 -14.1126L18.1159 -14.1351L18.0935 -14.1575L3.01491 0.933812ZM-14.1509 -14.1745C-16.2851 -12.0468 -17.9733 -9.52143 -19.1234 -6.74673L20.2915 9.59062C19.2929 11.9997 17.8267 14.1934 15.9723 16.0421L-14.1509 -14.1745ZM-19.1234 -6.74673C-20.2734 -3.97229 -20.8641 -1.00028 -20.8641 1.99881L21.8026 1.99881C21.8026 4.60186 21.2899 7.18175 20.2915 9.59062L-19.1234 -6.74673ZM-20.8641 1.99881C-20.8641 4.99789 -20.2734 7.9699 -19.1234 10.7443L20.2915 -5.59299C21.2899 -3.18413 21.8026 -0.604238 21.8026 1.99881L-20.8641 1.99881ZM-19.1234 10.7443C-17.9733 13.519 -16.2851 16.0445 -14.1509 18.1721L15.9723 -12.0445C17.8267 -10.1957 19.2929 -8.00212 20.2915 -5.59299L-19.1234 10.7443ZM-14.2127 18.1102L-7.37769 24.9802L22.8691 -5.11258L16.0341 -11.9826L-14.2127 18.1102ZM-7.31587 25.0421C-9.17042 23.1933 -10.6366 20.9996 -11.6351 18.5906L27.7798 2.25328C26.6298 -0.521332 24.9416 -3.04677 22.8073 -5.17447L-7.31587 25.0421ZM-11.6351 18.5906C-12.6335 16.1818 -13.1462 13.6019 -13.1462 10.9988L29.5205 10.9988C29.5205 7.99968 28.9298 5.02767 27.7798 2.25328L-11.6351 18.5906ZM-13.1462 10.9988C-13.1462 8.39571 -12.6335 5.81582 -11.6351 3.407L27.7798 19.7443C28.9298 16.97 29.5205 13.998 29.5205 10.9988L-13.1462 10.9988ZM-11.6351 3.407C-10.6366 0.997973 -9.17041 -1.19566 -7.31587 -3.04447L22.8073 27.1721C24.9416 25.0444 26.6298 22.519 27.7798 19.7443L-11.6351 3.407ZM-7.37769 -2.98259L-14.2127 3.88741L16.0341 33.9802L22.8691 27.1102L-7.37769 -2.98259ZM-14.1509 3.82553C-16.2852 5.9532 -17.9734 8.47862 -19.1234 11.2533L20.2915 27.5906C19.2929 29.9997 17.8268 32.1933 15.9722 34.0421L-14.1509 3.82553ZM-19.1234 11.2533C-20.2734 14.0277 -20.8641 16.9997 -20.8641 19.9988L21.8026 19.9988C21.8026 22.6019 21.2899 25.1818 20.2915 27.5906L-19.1234 11.2533ZM-20.8641 19.9988C-20.8641 22.9979 -20.2734 25.9699 -19.1235 28.7443L20.2915 12.407C21.2899 14.8159 21.8026 17.3958 21.8026 19.9988L-20.8641 19.9988ZM-19.1235 28.7443C-17.9734 31.519 -16.2852 34.0444 -14.1509 36.1721L15.9723 5.95553C17.8268 7.80431 19.2929 9.99794 20.2915 12.407L-19.1235 28.7443ZM-14.1679 36.1551C-9.89948 40.4199 -4.10248 42.8333 1.96279 42.8333L1.9628 0.166666C7.23954 0.166667 12.2801 2.26644 15.9892 5.97249L-14.1679 36.1551ZM1.96279 42.8333C8.02806 42.8333 13.8251 40.4199 18.0935 36.1551L-12.0637 5.97248C-8.35447 2.26644 -3.31395 0.166666 1.9628 0.166666L1.96279 42.8333ZM18.1383 36.1102L24.9882 29.2252L-5.25853 -0.867591L-12.1085 6.01741L18.1383 36.1102ZM24.9976 29.2158C29.8189 24.3638 32.5075 17.8097 32.5075 10.9988L-10.1591 10.9988C-10.1591 6.57296 -8.41235 2.30631 -5.26789 -0.858176L24.9976 29.2158ZM32.5075 10.9988C32.5075 4.18795 29.8189 -2.36618 24.9976 -7.21817L-5.26789 22.8558C-8.41236 19.6913 -10.1591 15.4247 -10.1591 10.9988L32.5075 10.9988ZM24.9883 -7.22759L18.1383 -14.1126L-12.1085 15.9802L-5.25853 22.8652L24.9883 -7.22759ZM18.0935 -14.1575C13.8251 -18.4222 8.02817 -20.8357 1.9628 -20.8357L1.96279 21.831C-3.31406 21.831 -8.35455 19.7311 -12.0637 16.0251L18.0935 -14.1575ZM1.9628 -20.8357C-4.10258 -20.8357 -9.89955 -18.4222 -14.1679 -14.1575L15.9892 16.0251C12.2801 19.7311 7.23965 21.831 1.96279 21.831L1.9628 -20.8357Z" fill="#2D2D4C" mask="url(#path-1-inside-1_513_990)"/>
</svg>
