<svg width="24" height="24" viewBox="0 0 24 24" fill="none" xmlns="http://www.w3.org/2000/svg">
<path d="M5.28994 15.7901C5.3829 15.8839 5.4935 15.9583 5.61536 16.009C5.73722 16.0598 5.86793 16.0859 5.99994 16.0859C6.13195 16.0859 6.26266 16.0598 6.38452 16.009C6.50638 15.9583 6.61698 15.8839 6.70994 15.7901L11.2899 11.2101C11.3829 11.1164 11.4935 11.042 11.6154 10.9912C11.7372 10.9405 11.8679 10.9143 11.9999 10.9143C12.132 10.9143 12.2627 10.9405 12.3845 10.9912C12.5064 11.042 12.617 11.1164 12.7099 11.2101L17.2899 15.7901C17.3829 15.8839 17.4935 15.9583 17.6154 16.009C17.7372 16.0598 17.8679 16.0859 17.9999 16.0859C18.132 16.0859 18.2627 16.0598 18.3845 16.009C18.5064 15.9583 18.617 15.8839 18.7099 15.7901C18.8962 15.6028 19.0007 15.3493 19.0007 15.0851C19.0007 14.821 18.8962 14.5675 18.7099 14.3801L14.1199 9.79014C13.5574 9.22834 12.7949 8.91278 11.9999 8.91278C11.2049 8.91278 10.4424 9.22834 9.87994 9.79014L5.28994 14.3801C5.10369 14.5675 4.99915 14.821 4.99915 15.0851C4.99915 15.3493 5.10369 15.6028 5.28994 15.7901Z" fill="black"/>
</svg>
