<svg width="8" height="14" viewBox="0 0 8 14" fill="none" xmlns="http://www.w3.org/2000/svg">
<path d="M7.7042 0.289207C7.79793 0.38217 7.87232 0.49277 7.92309 0.614629C7.97386 0.736488 8 0.867194 8 0.999206C8 1.13122 7.97386 1.26192 7.92309 1.38378C7.87232 1.50564 7.79793 1.61624 7.7042 1.7092L3.12421 6.28921C3.03048 6.38217 2.95609 6.49277 2.90532 6.61463C2.85455 6.73649 2.82841 6.8672 2.82841 6.99921C2.82841 7.13122 2.85455 7.26192 2.90532 7.38378C2.95609 7.50564 3.03048 7.61624 3.12421 7.70921L7.7042 12.2892C7.79793 12.3822 7.87232 12.4928 7.92309 12.6146C7.97386 12.7365 8 12.8672 8 12.9992C8 13.1312 7.97386 13.2619 7.92309 13.3838C7.87232 13.5056 7.79793 13.6162 7.7042 13.7092C7.51684 13.8955 7.26339 14 6.9992 14C6.73502 14 6.48157 13.8955 6.29421 13.7092L1.70421 9.11921C1.14241 8.55671 0.826855 7.79421 0.826855 6.99921C0.826855 6.20421 1.14241 5.44171 1.70421 4.87921L6.2942 0.289207C6.48157 0.102956 6.73502 -0.0015877 6.9992 -0.00158774C7.26339 -0.00158777 7.51684 0.102956 7.7042 0.289207Z" fill="#2D2D4C"/>
</svg>
