<svg width="56" height="56" viewBox="0 0 56 56" fill="none" xmlns="http://www.w3.org/2000/svg">
<rect width="56" height="56" rx="28" fill="#2D2D4C"/>
<g clip-path="url(#clip0_3799_7518)">
<path d="M19 25C19 28.309 21.691 31 25 31C28.309 31 31 28.309 31 24.998L30.993 23H31.987V22H30.989L30.987 21.448C30.987 18.444 28.542 16 25.537 16H24.437C21.432 16 18.987 18.445 18.987 21.452L18.989 22H17.987V23H18.993L19 25ZM30 25C30 27.757 27.757 30 25 30C22.243 30 20 27.757 20 24.998L19.993 23H29.993L30 25ZM19.987 21.45C19.987 19.506 21.247 17.868 22.987 17.263V20H23.987V17.045C24.137 17.03 24.283 17 24.437 17H25.537C25.691 17 25.837 17.03 25.987 17.046V20H26.987V17.263C28.727 17.868 29.987 19.507 29.987 21.45L29.989 22H19.989L19.987 21.45ZM28 33H21C18.794 33 17 34.794 17 37V40H16V37C16 34.243 18.243 32 21 32H28V33ZM33 30V33H30V36H27V40H40V30H33ZM34 31H39V33H34V31ZM31 34H36V36H31V34ZM33 39H28V37H33V39ZM39 39H34V37H39V39ZM39 36H37V34H39V36Z" fill="white"/>
</g>
<defs>
<clipPath id="clip0_3799_7518">
<rect width="24" height="24" fill="white" transform="translate(16 16)"/>
</clipPath>
</defs>
</svg>
