<svg width="56" height="56" viewBox="0 0 56 56" fill="none" xmlns="http://www.w3.org/2000/svg">
<rect width="56" height="56" rx="28" fill="#2D2D4C"/>
<path d="M39 34.501V39.5C39 39.776 38.776 40 38.5 40C38.224 40 38 39.776 38 39.5V34.501C38.038 32.971 36.503 31.707 35.008 32.05L30.508 32.954C29.345 33.188 28.5 34.22 28.5 35.405V39.5C28.5 39.776 28.276 40 28 40C27.724 40 27.5 39.776 27.5 39.5V35.405C27.5 34.219 26.656 33.188 25.492 32.954L20.992 32.05C19.496 31.71 17.962 32.969 18 34.501V39.5C18 39.776 17.776 40 17.5 40C17.224 40 17 39.776 17 39.5V34.501C16.945 32.355 19.098 30.595 21.189 31.069L25.689 31.973C26.682 32.173 27.505 32.791 28 33.618C28.494 32.792 29.317 32.174 30.311 31.973L34.811 31.069C36.904 30.595 39.054 32.355 39 34.501ZM20.5 22.5C20.5 22.224 20.724 22 21 22H22.009V21.51C22.006 20.039 22.577 18.656 23.616 17.614C24.655 16.572 26.037 16 27.509 16H28.509C31.537 16 34.005 18.463 34.009 21.49V22H35C35.276 22 35.5 22.224 35.5 22.5C35.5 22.776 35.276 23 35 23H34.01L34.012 24.999C34.012 28.309 31.321 31 28.012 31C24.703 31 22.012 28.309 22.012 25L22.01 23H21C20.724 23 20.5 22.776 20.5 22.5ZM33.01 23H23.01L23.012 24.999C23.012 27.757 25.255 30 28.012 30C30.769 30 33.012 27.757 33.012 25L33.01 23ZM23.009 22H33.009V21.492C33.005 19.541 31.743 17.892 30 17.274V20C30 20.276 29.776 20.5 29.5 20.5C29.224 20.5 29 20.276 29 20V17.05C28.836 17.032 28.677 17 28.508 17H27.508C27.335 17 27.168 17.031 26.999 17.05V20C26.999 20.276 26.775 20.5 26.499 20.5C26.223 20.5 25.999 20.276 25.999 20V17.275C25.378 17.496 24.803 17.839 24.323 18.32C23.472 19.173 23.006 20.304 23.008 21.508L23.009 22Z" fill="white"/>
</svg>
