<svg width="32" height="32" viewBox="0 0 32 32" fill="none" xmlns="http://www.w3.org/2000/svg">
<path d="M12.7722 12.7652C12.7722 11.5012 11.7936 11.2012 10.7069 11.2012H7.87891V14.4012H10.9282C12.0069 14.4012 12.7722 13.9292 12.7722 12.7652Z" fill="black"/>
<path d="M22.2215 14.4199C20.9149 14.4199 20.0429 15.2346 19.9575 16.5413H24.4002C24.2789 15.2199 23.5935 14.4199 22.2215 14.4199Z" fill="black"/>
<path d="M11.1574 16.6777H7.87207V20.4564H11.0934C12.3227 20.4564 13.3227 20.0204 13.3227 18.6417C13.3214 17.2351 12.4854 16.6844 11.1574 16.6777Z" fill="black"/>
<path d="M26.3333 0.400391H5.66667C2.53333 0.400391 0 2.93372 0 6.06706V25.9337C0 29.0671 2.53333 31.6004 5.66667 31.6004H26.3333C29.4667 31.6004 32 29.0671 32 25.9337V6.06706C32 2.93372 29.4667 0.400391 26.3333 0.400391ZM19.4067 9.57906H24.964V10.9284H19.4067V9.57906ZM11.5067 22.8004H4.85733V9.08572H11.3213C13.672 9.08572 15.7067 9.74972 15.7067 12.4777C15.7067 13.8564 15.064 14.5351 13.8347 15.1204C15.52 15.5991 16.3347 17.0857 16.3347 18.8071C16.336 21.5937 14 22.7857 11.5067 22.8004ZM27.1213 18.2644H19.964C19.964 19.8497 20.8 20.7857 22.4 20.7857C23.228 20.7857 24.2933 20.3431 24.5573 19.4924H26.964C26.2213 21.7711 24.6853 22.8351 22.3147 22.8351C19.1867 22.8351 17.236 20.7137 17.236 17.6204C17.236 14.6351 19.2867 12.3644 22.3147 12.3644C25.4213 12.3644 27.1427 14.8137 27.1427 17.7497C27.1427 17.9217 27.128 18.1004 27.1213 18.2644Z" fill="black"/>
</svg>
