<svg width="16" height="16" viewBox="0 0 16 16" fill="none" xmlns="http://www.w3.org/2000/svg">
<g clip-path="url(#clip0_2196_2042)">
<path d="M5.00933 6.13034C4.938 5.82101 4.74067 5.53967 4.448 5.41701C4.31067 5.35967 4.17267 5.33301 4.03933 5.33301C3.58 5.33301 3.18133 5.64967 3.07733 6.09767L2 10.6663H2.66867L2.988 9.33301H5.06467L5.37267 10.6663H6.04867L5.00933 6.13034ZM3.14733 8.66634L3.72667 6.24834C3.76067 6.10234 3.88933 5.99967 4.03933 5.99967C4.088 5.99967 4.13867 6.01034 4.19 6.03234C4.264 6.06301 4.332 6.16367 4.35867 6.27967L4.91 8.66634H3.14667H3.14733Z" fill="black"/>
<path d="M14.3333 2.66699H1.66667C0.747333 2.66699 0 3.41499 0 4.33366V13.3337H16V4.33366C16 3.41499 15.2527 2.66699 14.3333 2.66699ZM0.666667 4.33366C0.666667 3.78233 1.11533 3.33366 1.66667 3.33366H7.66667V12.667H0.666667V4.33366ZM15.3333 12.667H8.33333V3.33366H14.3333C14.8847 3.33366 15.3333 3.78233 15.3333 4.33366V12.667Z" fill="black"/>
<path d="M12.3333 5.33301H11.6666V5.99967H9.33325V6.66634H13.3093C13.2413 7.23434 12.9826 8.39434 11.9999 9.18434C11.5646 8.83434 11.2713 8.41101 11.0739 7.99967H10.3613C10.5693 8.52234 10.8979 9.08634 11.4153 9.56034C10.8826 9.82901 10.2026 9.99967 9.33392 9.99967V10.6663C10.4819 10.6663 11.3479 10.4003 12.0006 10.0003C12.6533 10.4003 13.5186 10.6663 14.6673 10.6663V9.99967C13.7986 9.99967 13.1179 9.82834 12.5859 9.56034C13.6313 8.60234 13.9046 7.27767 13.9759 6.66634H14.6679V5.99967H12.3346V5.33301H12.3333Z" fill="black"/>
</g>
<defs>
<clipPath id="clip0_2196_2042">
<rect width="16" height="16" fill="white"/>
</clipPath>
</defs>
</svg>
