<svg width="17" height="16" viewBox="0 0 17 16" fill="none" xmlns="http://www.w3.org/2000/svg">
<path d="M12.2253 5.72267L12.694 6.196L8.668 10.184C8.346 10.5033 7.92067 10.6633 7.496 10.6633C7.074 10.6633 6.652 10.506 6.33 10.1907L4.30667 8.19667L4.774 7.722L6.79667 9.71533C7.184 10.094 7.81267 10.092 8.19933 9.71067L12.2253 5.72267ZM16.5 8C16.5 12.4113 12.9113 16 8.5 16C4.08867 16 0.5 12.4113 0.5 8C0.5 3.58867 4.08867 0 8.5 0C12.9113 0 16.5 3.58867 16.5 8ZM15.8333 8C15.8333 3.95667 12.5433 0.666667 8.5 0.666667C4.45667 0.666667 1.16667 3.95667 1.16667 8C1.16667 12.0433 4.45667 15.3333 8.5 15.3333C12.5433 15.3333 15.8333 12.0433 15.8333 8Z" fill="black" fill-opacity="0.8"/>
</svg>
