<svg width="24" height="24" viewBox="0 0 24 24" fill="none" xmlns="http://www.w3.org/2000/svg">
<g clip-path="url(#clip0_3813_8040)">
<path d="M22 9.051V7.5C22 3.364 18.636 0 14.5 0H9.5C5.364 0 2 3.364 2 7.5V9.051C0.86 9.283 0 10.293 0 11.5V18C0 19.474 0.81 20.75 2 21.444V23.5C2 23.776 2.224 24 2.5 24C2.776 24 3 23.776 3 23.5V21.858C3.322 21.942 3.653 22 4 22H20C20.347 22 20.678 21.942 21 21.858V23.5C21 23.776 21.224 24 21.5 24C21.776 24 22 23.776 22 23.5V21.444C23.19 20.75 24 19.474 24 18V11.5C24 10.293 23.14 9.283 22 9.051ZM9.5 1H14.5C18.084 1 21 3.916 21 7.5V9.051C19.86 9.283 19 10.293 19 11.5V14H5V11.5C5 10.293 4.14 9.283 3 9.051V7.5C3 3.916 5.916 1 9.5 1ZM4 21C2.346 21 1 19.654 1 18V11.5C1 10.673 1.673 10 2.5 10C3.327 10 4 10.673 4 11.5V21ZM5 21V15H19V21H5ZM23 18C23 19.654 21.654 21 20 21V11.5C20 10.673 20.673 10 21.5 10C22.327 10 23 10.673 23 11.5V18Z" fill="white"/>
</g>
<defs>
<clipPath id="clip0_3813_8040">
<rect width="24" height="24" fill="white"/>
</clipPath>
</defs>
</svg>
