<svg width="16" height="16" viewBox="0 0 16 16" fill="none" xmlns="http://www.w3.org/2000/svg">
<g clip-path="url(#clip0_2168_2119)">
<path d="M14 2.66667H11.9334C11.7786 1.91428 11.3693 1.23823 10.7742 0.752479C10.1792 0.266727 9.43484 0.000969683 8.66671 0L7.33337 0C6.56524 0.000969683 5.82092 0.266727 5.22587 0.752479C4.63083 1.23823 4.22144 1.91428 4.06671 2.66667H2.00004C1.82323 2.66667 1.65366 2.7369 1.52864 2.86193C1.40361 2.98695 1.33337 3.15652 1.33337 3.33333C1.33337 3.51014 1.40361 3.67971 1.52864 3.80474C1.65366 3.92976 1.82323 4 2.00004 4H2.66671V12.6667C2.66777 13.5504 3.0193 14.3976 3.64419 15.0225C4.26908 15.6474 5.11631 15.9989 6.00004 16H10C10.8838 15.9989 11.731 15.6474 12.3559 15.0225C12.9808 14.3976 13.3323 13.5504 13.3334 12.6667V4H14C14.1769 4 14.3464 3.92976 14.4714 3.80474C14.5965 3.67971 14.6667 3.51014 14.6667 3.33333C14.6667 3.15652 14.5965 2.98695 14.4714 2.86193C14.3464 2.7369 14.1769 2.66667 14 2.66667ZM7.33337 1.33333H8.66671C9.08022 1.33384 9.48346 1.46225 9.82112 1.70096C10.1588 1.93967 10.4143 2.27699 10.5527 2.66667H5.44737C5.58576 2.27699 5.84131 1.93967 6.17897 1.70096C6.51662 1.46225 6.91986 1.33384 7.33337 1.33333ZM12 12.6667C12 13.1971 11.7893 13.7058 11.4143 14.0809C11.0392 14.456 10.5305 14.6667 10 14.6667H6.00004C5.46961 14.6667 4.9609 14.456 4.58583 14.0809C4.21075 13.7058 4.00004 13.1971 4.00004 12.6667V4H12V12.6667Z" fill="black"/>
<path d="M6.66667 12.0003C6.84348 12.0003 7.01305 11.9301 7.13807 11.8051C7.2631 11.68 7.33333 11.5105 7.33333 11.3337V7.33366C7.33333 7.15685 7.2631 6.98728 7.13807 6.86225C7.01305 6.73723 6.84348 6.66699 6.66667 6.66699C6.48986 6.66699 6.32029 6.73723 6.19526 6.86225C6.07024 6.98728 6 7.15685 6 7.33366V11.3337C6 11.5105 6.07024 11.68 6.19526 11.8051C6.32029 11.9301 6.48986 12.0003 6.66667 12.0003Z" fill="black"/>
<path d="M9.33329 12.0003C9.5101 12.0003 9.67967 11.9301 9.8047 11.8051C9.92972 11.68 9.99996 11.5105 9.99996 11.3337V7.33366C9.99996 7.15685 9.92972 6.98728 9.8047 6.86225C9.67967 6.73723 9.5101 6.66699 9.33329 6.66699C9.15648 6.66699 8.98691 6.73723 8.86189 6.86225C8.73686 6.98728 8.66663 7.15685 8.66663 7.33366V11.3337C8.66663 11.5105 8.73686 11.68 8.86189 11.8051C8.98691 11.9301 9.15648 12.0003 9.33329 12.0003Z" fill="black"/>
</g>
<defs>
<clipPath id="clip0_2168_2119">
<rect width="16" height="16" fill="white"/>
</clipPath>
</defs>
</svg>
