<svg width="22" height="22" viewBox="0 0 22 22" fill="none" xmlns="http://www.w3.org/2000/svg">
<mask id="mask0_477_700" style="mask-type:luminance" maskUnits="userSpaceOnUse" x="1" y="1" width="20" height="20">
<path fill-rule="evenodd" clip-rule="evenodd" d="M1.69238 11C1.69238 16.1404 5.85958 20.3076 11.0001 20.3076C16.1406 20.3076 20.3078 16.1404 20.3078 11C20.3078 5.85946 16.1406 1.69226 11.0001 1.69226C5.85958 1.69226 1.69238 5.85946 1.69238 11ZM15.3464 7.54114C14.9179 7.07597 14.2077 7.07597 13.7793 7.54114L9.66404 12.0091L8.22087 10.4422C7.79242 9.97707 7.08222 9.97707 6.65377 10.4422C6.24371 10.8874 6.24371 11.596 6.65377 12.0412L8.88049 14.4588C9.30894 14.9239 10.0191 14.9239 10.4476 14.4588L15.3464 9.14008C15.7564 8.69488 15.7564 7.98635 15.3464 7.54114Z" fill="white"/>
</mask>
<g mask="url(#mask0_477_700)">
<rect width="22" height="22" fill="#22242A"/>
</g>
</svg>
