<svg width="16" height="16" viewBox="0 0 16 16" fill="none" xmlns="http://www.w3.org/2000/svg">
<path d="M13 0H3C1.346 0 0 1.346 0 3V13C0 14.654 1.346 16 3 16H13C14.654 16 16 14.654 16 13V3C16 1.346 14.654 0 13 0ZM15.3333 13C15.3333 14.2867 14.2867 15.3333 13 15.3333H3C1.71333 15.3333 0.666667 14.2867 0.666667 13V3C0.666667 1.71333 1.71333 0.666667 3 0.666667H13C14.2867 0.666667 15.3333 1.71333 15.3333 3V13ZM11.002 3.33333C10.5567 3.33333 10.1373 3.50667 9.82333 3.82067L4.21133 9.43067C3.644 9.998 3.332 10.7507 3.332 11.5527V11.9993C3.332 12.3667 3.63133 12.666 3.99867 12.666H4.44667C5.248 12.666 6.00133 12.354 6.568 11.788L12.1753 6.182C12.8213 5.59467 12.822 4.40667 12.1807 3.82067C11.866 3.506 11.4473 3.33333 11.002 3.33333ZM6.09667 11.3167C5.656 11.7573 5.07 11.9993 4.44667 11.9993H3.99867V11.5527C3.99867 10.9293 4.24133 10.3433 4.68267 9.902L8.89067 5.69533L10.3053 7.10933L6.09667 11.3167ZM11.7087 5.706L10.7767 6.638L9.362 5.224L10.2947 4.292C10.6707 3.90333 11.3367 3.90467 11.714 4.29733C12.092 4.64333 12.09 5.35933 11.7087 5.706Z" fill="black" fill-opacity="0.5"/>
</svg>
