<svg width="25" height="24" viewBox="0 0 25 24" fill="none" xmlns="http://www.w3.org/2000/svg">
<path d="M2 6.22744H4.425C4.624 8.63844 6.286 8.93144 7.557 8.93144C8.828 8.93144 10.489 8.63844 10.689 6.22744H23.001C23.277 6.22744 23.501 6.00344 23.501 5.72744C23.501 5.45144 23.277 5.22744 23.001 5.22744H10.688C10.489 2.81644 8.827 2.52344 7.556 2.52344C6.285 2.52344 4.624 2.81644 4.424 5.22744H2C1.724 5.22744 1.5 5.45144 1.5 5.72744C1.5 6.00344 1.724 6.22744 2 6.22744ZM7.556 3.52344C8.918 3.52344 9.707 3.88344 9.707 5.72744C9.707 7.57144 8.918 7.93144 7.556 7.93144C6.194 7.93144 5.405 7.57144 5.405 5.72744C5.405 3.88344 6.194 3.52344 7.556 3.52344Z" fill="black"/>
<path d="M23 11.5009H20.575C20.376 9.08988 18.714 8.79688 17.443 8.79688C16.172 8.79688 14.511 9.08988 14.311 11.5009H2C1.724 11.5009 1.5 11.7249 1.5 12.0009C1.5 12.2769 1.724 12.5009 2 12.5009H14.312C14.511 14.9119 16.173 15.2049 17.444 15.2049C18.715 15.2049 20.376 14.9119 20.576 12.5009H23.001C23.277 12.5009 23.501 12.2769 23.501 12.0009C23.501 11.7249 23.276 11.5009 23 11.5009ZM17.444 14.2049C16.082 14.2049 15.293 13.8449 15.293 12.0009C15.293 10.1569 16.082 9.79688 17.444 9.79688C18.806 9.79688 19.595 10.1569 19.595 12.0009C19.595 13.8449 18.806 14.2049 17.444 14.2049Z" fill="black"/>
<path d="M23 17.7724H10.688C10.489 15.3614 8.827 15.0684 7.556 15.0684C6.285 15.0684 4.624 15.3614 4.424 17.7724H2C1.724 17.7724 1.5 17.9964 1.5 18.2724C1.5 18.5484 1.724 18.7724 2 18.7724H4.425C4.624 21.1824 6.287 21.4754 7.557 21.4754C8.827 21.4754 10.489 21.1824 10.689 18.7724H23.001C23.277 18.7724 23.501 18.5484 23.501 18.2724C23.501 17.9964 23.276 17.7724 23 17.7724ZM7.556 20.4754C6.194 20.4754 5.405 20.1154 5.405 18.2724C5.405 16.4294 6.194 16.0684 7.556 16.0684C8.918 16.0684 9.707 16.4284 9.707 18.2724C9.707 20.1164 8.918 20.4754 7.556 20.4754Z" fill="black"/>
</svg>
