<svg width="16" height="16" viewBox="0 0 16 16" fill="none" xmlns="http://www.w3.org/2000/svg">
<path d="M14.6667 6.03268V4.33268C14.6667 2.31068 13.022 0.666016 11 0.666016H5C2.978 0.666016 1.33333 2.31068 1.33333 4.33268V6.03268C0.573333 6.18735 0 6.86068 0 7.66602V10.9993C0 12.0373 0.53 12.954 1.33333 13.4927V14.9993C1.33333 15.1833 1.48267 15.3327 1.66667 15.3327C1.85067 15.3327 2 15.1833 2 14.9993V13.828C2.31267 13.9387 2.64933 13.9993 3 13.9993H13C13.3507 13.9993 13.6873 13.9387 14 13.828V14.9993C14 15.1833 14.1493 15.3327 14.3333 15.3327C14.5173 15.3327 14.6667 15.1833 14.6667 14.9993V13.4927C15.47 12.954 16 12.0373 16 10.9993V7.66602C16 6.86135 15.4267 6.18802 14.6667 6.03268ZM5 1.33268H11C12.654 1.33268 14 2.67868 14 4.33268V6.03268C13.24 6.18735 12.6667 6.86068 12.6667 7.66602V9.99935H3.33333V7.66602C3.33333 6.86135 2.76 6.18802 2 6.03268V4.33268C2 2.67868 3.346 1.33268 5 1.33268ZM15.3333 10.9993C15.3333 12.286 14.2867 13.3327 13 13.3327H3C1.71333 13.3327 0.666667 12.286 0.666667 10.9993V7.66602C0.666667 7.11468 1.11533 6.66602 1.66667 6.66602C2.218 6.66602 2.66667 7.11468 2.66667 7.66602V10.3327C2.66667 10.5167 2.816 10.666 3 10.666H13C13.184 10.666 13.3333 10.5167 13.3333 10.3327V7.66602C13.3333 7.11468 13.782 6.66602 14.3333 6.66602C14.8847 6.66602 15.3333 7.11468 15.3333 7.66602V10.9993Z" fill="black" fill-opacity="0.5"/>
</svg>
