<svg width="16" height="16" viewBox="0 0 16 16" fill="none" xmlns="http://www.w3.org/2000/svg">
<path d="M11.8333 0.666016C10.164 0.666016 8.64867 1.90002 8 3.56868C7.35133 1.89935 5.836 0.666016 4.16667 0.666016C1.86933 0.666016 0 2.53535 0 4.83268C0 9.33935 6.50267 14.2127 7.806 15.1433L8 15.282L8.194 15.1433C9.498 14.2127 16 9.33868 16 4.83268C16 2.53535 14.1307 0.666016 11.8333 0.666016ZM8 14.4613C4.57267 11.9713 0.666667 8.01402 0.666667 4.83268C0.666667 2.90268 2.23667 1.33268 4.16667 1.33268C5.99867 1.33268 7.66667 3.23935 7.66667 5.33268H8.33333C8.33333 3.23935 10.0013 1.33268 11.8333 1.33268C13.7633 1.33268 15.3333 2.90268 15.3333 4.83268C15.3333 8.01402 11.4273 11.9713 8 14.4613Z" fill="#FF0000"/>
</svg>
