<svg width="56" height="56" viewBox="0 0 56 56" fill="none" xmlns="http://www.w3.org/2000/svg">
<rect width="56" height="56" rx="28" fill="#2D2D4C"/>
<g clip-path="url(#clip0_3799_3436)">
<path d="M38.017 21.8312L37 21.1452V17.5002C37 17.2242 36.776 17.0002 36.5 17.0002C36.224 17.0002 36 17.2242 36 17.5002V20.4702L30.517 16.7702C28.988 15.7382 27.011 15.7392 25.484 16.7702L17.983 21.8312C16.741 22.6682 16 24.0632 16 25.5612V35.5002C16 37.9812 18.019 40.0002 20.5 40.0002H23.5C23.776 40.0002 24 39.7762 24 39.5002V30.5002C24 29.6732 24.673 29.0002 25.5 29.0002H30.5C31.327 29.0002 32 29.6732 32 30.5002V39.5002C32 39.7762 32.224 40.0002 32.5 40.0002H35.5C37.981 40.0002 40 37.9812 40 35.5002V25.5612C40 24.0622 39.259 22.6682 38.017 21.8312ZM39 35.5002C39 37.4302 37.43 39.0002 35.5 39.0002H33V30.5002C33 29.1222 31.879 28.0002 30.5 28.0002H25.5C24.121 28.0002 23 29.1222 23 30.5002V39.0002H20.5C18.57 39.0002 17 37.4302 17 35.5002V25.5612C17 24.3952 17.576 23.3112 18.542 22.6602L26.042 17.5992C27.231 16.7962 28.769 16.7962 29.958 17.5992L37.458 22.6602C38.424 23.3112 39 24.3962 39 25.5612V35.5002Z" fill="white"/>
</g>
<defs>
<clipPath id="clip0_3799_3436">
<rect width="24" height="24" fill="white" transform="translate(16 16)"/>
</clipPath>
</defs>
</svg>
