<svg width="16" height="17" viewBox="0 0 16 17" fill="none" xmlns="http://www.w3.org/2000/svg">
<g clip-path="url(#clip0_3281_6207)">
<path d="M9.36067 9.46119L5.728 6.61852C5.29933 6.28252 4.70133 6.28252 4.27133 6.61852L0.64 9.46119C0.233333 9.77919 0 10.2572 0 10.7739V16.3679H10V10.7732C10 10.2572 9.76667 9.77919 9.36067 9.46119ZM9.33333 15.7005H0.666667V10.7732C0.666667 10.4632 0.806667 10.1759 1.05067 9.98519L4.682 7.14252C4.86933 6.99652 5.13067 6.99652 5.31667 7.14252L8.94933 9.98519C9.19267 10.1759 9.33267 10.4632 9.33267 10.7732V15.7005H9.33333ZM3.33333 13.7005H6.66667V10.3672H3.33333V13.7005ZM4 11.0339H6V13.0339H4V11.0339ZM12 9.03386H13.3333V9.70052H12V9.03386ZM12 11.7005H13.3333V12.3672H12V11.7005ZM9.33333 3.70052H10.6667V4.36719H9.33333V3.70052ZM13.3333 4.36719H12V3.70052H13.3333V4.36719ZM9.33333 6.36719H10.6667V7.03385H9.33333V6.36719ZM12 6.36719H13.3333V7.03385H12V6.36719ZM16 2.03385V16.3672H11.3333V15.7005H15.3333V2.03385C15.3333 1.48252 14.8847 1.03385 14.3333 1.03385H8.33333C7.782 1.03385 7.33333 1.48252 7.33333 2.03385V6.36719L6.66667 5.84519V2.03385C6.66667 1.11452 7.414 0.367188 8.33333 0.367188H14.3333C15.2527 0.367188 16 1.11452 16 2.03385Z" fill="black"/>
</g>
<defs>
<clipPath id="clip0_3281_6207">
<rect width="16" height="16" fill="white" transform="translate(0 0.367188)"/>
</clipPath>
</defs>
</svg>
