<svg width="16" height="15" viewBox="0 0 16 15" fill="none" xmlns="http://www.w3.org/2000/svg">
<path d="M15.182 5.81378C14.5487 5.08512 13.632 4.66645 12.6667 4.66645H9.42L9.95933 2.77778C10.3393 0.771785 7.368 -0.186215 6.52467 1.70978L4.65733 4.66645H3.00067C1.346 4.66645 0 6.01245 0 7.66645V11.6665C0 13.3205 1.346 14.6665 3 14.6665H12.1967C13.848 14.6665 15.2667 13.4338 15.4973 11.7985L15.9673 8.46512C16.102 7.50845 15.8153 6.54245 15.182 5.81378ZM0.666667 11.6665V7.66645C0.666667 6.37978 1.71333 5.33312 3 5.33312H4.67467L4.66733 13.9998H3.00067C1.714 13.9998 0.667333 12.9531 0.667333 11.6665H0.666667ZM15.3073 8.37245L14.8373 11.7058C14.6527 13.0138 13.518 13.9998 12.1967 13.9998H5.33333L5.34133 4.83045L7.10467 2.03578C7.61933 0.790452 9.50533 1.37912 9.31 2.63245L8.65733 4.90845C8.62867 5.00912 8.648 5.11712 8.71133 5.20045C8.77467 5.28378 8.87267 5.33312 8.97733 5.33312H12.666C14.2393 5.29712 15.562 6.81845 15.3067 8.37245H15.3073Z" fill="black"/>
</svg>
