<svg width="24" height="20" viewBox="0 0 24 20" fill="none" xmlns="http://www.w3.org/2000/svg">
<path d="M18.148 5.18813C17.707 5.08913 17.341 4.80913 17.147 4.42113C15.533 1.19813 12.046 -0.526869 8.472 0.143131C5.337 0.724131 2.803 3.22213 2.166 6.36013C1.976 7.29313 1.948 8.23313 2.083 9.15613C2.166 9.72313 2.025 10.2291 1.697 10.5441C0.604 11.5871 0.001 12.9901 0 14.4951C0 17.6311 2.364 19.9951 5.5 19.9951H16.236C20.367 19.9951 23.847 16.7611 23.995 12.7841C24.129 9.17213 21.67 5.97713 18.148 5.18713V5.18813ZM16.236 18.9961H5.5C2.893 18.9961 1 17.1031 1 14.4971C1.001 13.2681 1.494 12.1211 2.389 11.2671C2.954 10.7261 3.204 9.90513 3.074 9.01213C2.956 8.20413 2.981 7.37913 3.148 6.56013C3.704 3.81813 5.918 1.63413 8.656 1.12613C9.104 1.04313 9.551 1.00313 9.991 1.00313C12.628 1.00313 15.044 2.45313 16.254 4.86913C16.584 5.52713 17.194 5.99913 17.931 6.16513C20.983 6.84913 23.113 9.61713 22.996 12.7481C22.869 16.1931 19.836 18.9961 16.236 18.9961ZM15.267 10.1471C15.462 10.3421 15.462 10.6591 15.267 10.8541C15.169 10.9521 15.041 11.0001 14.913 11.0001C14.785 11.0001 14.657 10.9511 14.559 10.8541L11.998 8.29313V15.5001C11.998 15.7761 11.774 16.0001 11.498 16.0001C11.222 16.0001 10.998 15.7761 10.998 15.5001V8.29313L8.437 10.8541C8.242 11.0491 7.925 11.0491 7.73 10.8541C7.535 10.6591 7.535 10.3421 7.73 10.1471L10.437 7.44013C10.68 7.19813 10.989 7.08113 11.305 7.03913C11.364 7.01413 11.429 7.00013 11.497 7.00013C11.565 7.00013 11.63 7.01413 11.689 7.03913C12.006 7.08013 12.315 7.19713 12.558 7.44013L15.265 10.1471H15.267Z" fill="black"/>
</svg>
