<svg width="16" height="17" viewBox="0 0 16 17" fill="none" xmlns="http://www.w3.org/2000/svg">
<path d="M10.4515 11.6999V11.0332H12.3968V11.6999H10.4515ZM13.6421 11.7239C14.1968 11.8092 14.6928 12.1285 15.0035 12.5999L15.5601 12.2325C15.1455 11.6045 14.4835 11.1785 13.7435 11.0645L13.6421 11.7239ZM9.0788 7.97785C9.35213 7.79652 9.6708 7.69985 10.0001 7.69985H10.0828L9.46947 7.09985C9.2008 7.16252 8.9428 7.26719 8.70947 7.42185C8.38413 7.63852 8.11547 7.93519 7.93413 8.27985L8.52413 8.59052C8.65413 8.34385 8.84547 8.13252 9.0788 7.97785ZM11.3335 3.69985C11.3335 2.96452 11.9315 2.36652 12.6668 2.36652C13.4021 2.36652 14.0001 2.96452 14.0001 3.69985C14.0001 4.43519 13.4021 5.03319 12.6668 5.03319C11.9315 5.03319 11.3335 4.43519 11.3335 3.69985ZM12.0001 3.69985C12.0001 4.06719 12.2995 4.36652 12.6668 4.36652C13.0341 4.36652 13.3335 4.06719 13.3335 3.69985C13.3335 3.33252 13.0341 3.03319 12.6668 3.03319C12.2995 3.03319 12.0001 3.33252 12.0001 3.69985ZM10.3121 6.05985C9.00947 4.75719 9.00947 2.64319 10.3095 1.34319C10.9395 0.713854 11.7761 0.367188 12.6668 0.367188C13.5575 0.367188 14.3941 0.713854 15.0235 1.34319C15.6535 1.97252 16.0001 2.80985 16.0001 3.70052C16.0001 4.59119 15.6535 5.42785 15.0235 6.05785L12.6668 8.36319L10.3121 6.06052V6.05985ZM10.7808 5.58585L12.6668 7.42985L14.5548 5.58319C15.0561 5.08252 15.3335 4.41252 15.3335 3.69985C15.3335 2.98719 15.0561 2.31785 14.5521 1.81385C14.0488 1.31052 13.3788 1.03319 12.6668 1.03319C11.9548 1.03319 11.2848 1.31052 10.7808 1.81385C9.7408 2.85385 9.7408 4.54652 10.7808 5.58585ZM15.3335 13.7005C15.3335 14.2505 15.1148 14.7632 14.7175 15.1445L15.1781 15.6259C15.7088 15.1179 16.0001 14.4339 16.0001 13.7005L15.9988 13.6279L15.3335 13.7012V13.7005ZM8.6308 16.3672H10.5768V15.7005H8.6308V16.3672ZM13.3335 15.7005H11.8741V16.3672H13.3335C13.5195 16.3672 13.7048 16.3479 13.8848 16.3099L13.7468 15.6572C13.6121 15.6859 13.4728 15.7005 13.3335 15.7005ZM9.31613 10.8872C8.81213 10.6605 8.45413 10.2005 8.35813 9.65785L7.70213 9.77385C7.83613 10.5339 8.3368 11.1772 9.0428 11.4952L9.31613 10.8872ZM5.23547 16.3672H7.33347V15.7005H5.91747L5.23547 16.3672ZM4.6668 11.7005C4.6668 12.4359 4.0688 13.0339 3.33347 13.0339C2.59813 13.0339 2.00013 12.4359 2.00013 11.7005C2.00013 10.9652 2.59813 10.3672 3.33347 10.3672C4.0688 10.3672 4.6668 10.9652 4.6668 11.7005ZM4.00013 11.7005C4.00013 11.3332 3.7008 11.0339 3.33347 11.0339C2.96613 11.0339 2.6668 11.3332 2.6668 11.7005C2.6668 12.0679 2.96613 12.3672 3.33347 12.3672C3.7008 12.3672 4.00013 12.0679 4.00013 11.7005ZM5.69013 14.0579L3.33347 16.3632L0.978799 14.0605C-0.323868 12.7579 -0.323868 10.6439 0.976132 9.34385C1.60613 8.71452 2.4428 8.36785 3.33347 8.36785C4.22413 8.36785 5.0608 8.71452 5.69013 9.34385C6.32013 9.97319 6.6668 10.8105 6.6668 11.7012C6.6668 12.5919 6.32013 13.4279 5.69013 14.0579ZM5.22147 13.5839C5.7228 13.0832 6.00013 12.4132 6.00013 11.7005C6.00013 10.9879 5.7228 10.3185 5.2188 9.81452C4.71547 9.31119 4.04546 9.03385 3.33347 9.03385C2.62146 9.03385 1.95147 9.31119 1.44747 9.81452C0.407465 10.8545 0.407465 12.5465 1.44747 13.5859L3.33347 15.4299L5.22147 13.5839Z" fill="black"/>
</svg>
