<svg width="22" height="22" viewBox="0 0 22 22" fill="none" xmlns="http://www.w3.org/2000/svg">
<mask id="mask0_477_1254" style="mask-type:luminance" maskUnits="userSpaceOnUse" x="2" y="0" width="18" height="22">
<path fill-rule="evenodd" clip-rule="evenodd" d="M12.7171 20.0838C13.6386 19.35 14.5599 18.5209 15.4221 17.6108C17.9365 14.9567 19.4617 12.1606 19.4617 9.30773C19.4617 4.63455 15.6733 0.846191 11.0001 0.846191C6.32693 0.846191 2.53857 4.63455 2.53857 9.30773C2.53857 12.1606 4.06368 14.9567 6.57815 17.6108C7.44034 18.5209 8.36159 19.35 9.28312 20.0838C9.60616 20.3411 9.90674 20.5684 10.1775 20.764C10.3425 20.8831 10.4627 20.9664 10.5308 21.0118C10.815 21.2013 11.1853 21.2013 11.4695 21.0118C11.5375 20.9664 11.6578 20.8831 11.8228 20.764C12.0935 20.5684 12.3941 20.3411 12.7171 20.0838ZM7.6155 9.30773C7.6155 11.177 9.13084 12.6923 11.0001 12.6923C12.8694 12.6923 14.3847 11.177 14.3847 9.30773C14.3847 7.43846 12.8694 5.92311 11.0001 5.92311C9.13084 5.92311 7.6155 7.43846 7.6155 9.30773Z" fill="white"/>
</mask>
<g mask="url(#mask0_477_1254)">
<rect width="22" height="22" fill="#22242A"/>
</g>
</svg>
