<svg width="16" height="16" viewBox="0 0 16 16" fill="none" xmlns="http://www.w3.org/2000/svg">
<path d="M8.00004 15.9993L7.5307 15.6027C6.0627 14.3607 1.27271 10.0507 1.27271 6.72733C1.27271 3.018 4.2907 0 8.00004 0C11.7094 0 14.7274 3.018 14.7274 6.72733C14.7274 10.0507 9.93737 14.3607 8.46937 15.6027L8.00004 15.9993ZM8.00004 0.666667C4.65804 0.666667 1.93937 3.38533 1.93937 6.72733C1.93937 9.842 6.95537 14.2427 7.9607 15.094L8.00004 15.1273L8.03937 15.094C9.0447 14.2433 14.0607 9.842 14.0607 6.72733C14.0607 3.38533 11.342 0.666667 8.00004 0.666667Z" fill="black"/>
<path d="M7.99992 9.33333C6.52925 9.33333 5.33325 8.13733 5.33325 6.66667C5.33325 5.196 6.52925 4 7.99992 4C9.47059 4 10.6666 5.196 10.6666 6.66667C10.6666 8.13733 9.47059 9.33333 7.99992 9.33333ZM7.99992 4.66667C6.89725 4.66667 5.99992 5.564 5.99992 6.66667C5.99992 7.76933 6.89725 8.66667 7.99992 8.66667C9.10259 8.66667 9.99992 7.76933 9.99992 6.66667C9.99992 5.564 9.10259 4.66667 7.99992 4.66667Z" fill="black"/>
</svg>
