<svg width="16" height="16" viewBox="0 0 16 16" fill="none" xmlns="http://www.w3.org/2000/svg">
<g clip-path="url(#clip0_2196_2093)">
<path d="M15.2205 6.11493L12.6345 3.52893C12.3696 3.27315 11.9476 3.28049 11.6918 3.54534C11.4423 3.80368 11.4423 4.21327 11.6918 4.47162L14.2778 7.05762C14.3546 7.13596 14.4218 7.22327 14.4778 7.31762C14.4678 7.31762 14.4598 7.31227 14.4498 7.31227L3.9938 7.33362C3.62562 7.33362 3.32715 7.63209 3.32715 8.00027C3.32715 8.36846 3.62562 8.66693 3.9938 8.66693L14.4458 8.64559C14.4645 8.64559 14.4798 8.63624 14.4978 8.63493C14.4387 8.74771 14.3637 8.85143 14.2751 8.94293L11.6891 11.5289C11.4243 11.7847 11.417 12.2067 11.6727 12.4716C11.9285 12.7364 12.3506 12.7438 12.6154 12.488C12.621 12.4826 12.6264 12.4771 12.6318 12.4716L15.2178 9.88559C16.2588 8.84424 16.2588 7.15624 15.2178 6.11493H15.2205Z" fill="black"/>
<path d="M4.66788 14.6667H3.33453C2.22997 14.6667 1.33453 13.7712 1.33453 12.6667V3.33334C1.33453 2.22878 2.22997 1.33334 3.33453 1.33334H4.66788C5.03606 1.33334 5.33453 1.03487 5.33453 0.666687C5.33453 0.2985 5.0361 0 4.66788 0H3.33453C1.49453 0.00221875 0.00343945 1.49331 0.0012207 3.33334V12.6667C0.00343945 14.5067 1.49453 15.9978 3.33456 16H4.66791C5.0361 16 5.33456 15.7015 5.33456 15.3333C5.33456 14.9652 5.0361 14.6667 4.66788 14.6667Z" fill="black"/>
</g>
<defs>
<clipPath id="clip0_2196_2093">
<rect width="16" height="16" fill="white"/>
</clipPath>
</defs>
</svg>
