<svg width="16" height="16" viewBox="0 0 16 16" fill="none" xmlns="http://www.w3.org/2000/svg">
<path d="M9.99994 4C9.99994 1.794 8.20594 0 5.99994 0C3.79394 0 1.99993 1.794 1.99993 4C1.99993 6.206 3.79394 8 5.99994 8C8.20594 8 9.99994 6.206 9.99994 4ZM5.99994 6.66667C4.52927 6.66667 3.33327 5.47067 3.33327 4C3.33327 2.52933 4.52927 1.33333 5.99994 1.33333C7.4706 1.33333 8.6666 2.52933 8.6666 4C8.6666 5.47067 7.4706 6.66667 5.99994 6.66667ZM5.9946 9.95867C6.03994 10.324 5.78127 10.6567 5.41527 10.7027C3.08793 10.9933 1.3326 12.9833 1.3326 15.3333C1.3326 15.7013 1.03393 16 0.665934 16C0.297934 16 -0.000732422 15.7013 -0.000732422 15.3333C-0.000732422 12.3127 2.2566 9.75333 5.24993 9.38C5.61127 9.334 5.94794 9.59333 5.99394 9.95933L5.9946 9.95867ZM15.1306 12.7553L14.4813 12.3807C14.5919 12.0493 14.6666 11.7013 14.6666 11.3327C14.6666 10.964 14.5926 10.616 14.4813 10.2847L15.1306 9.91C15.4493 9.726 15.5586 9.318 15.3746 8.99933C15.1899 8.68 14.7833 8.57 14.4639 8.75533L13.8153 9.13C13.3453 8.60067 12.7193 8.21333 11.9999 8.06733V7.33333C11.9999 6.96533 11.7013 6.66667 11.3333 6.66667C10.9653 6.66667 10.6666 6.96533 10.6666 7.33333V8.06733C9.94727 8.214 9.32127 8.60133 8.85127 9.13L8.2026 8.75533C7.8826 8.57067 7.47593 8.68 7.29193 8.99933C7.10793 9.31867 7.21727 9.726 7.53594 9.91L8.18527 10.2847C8.0746 10.616 7.99994 10.964 7.99994 11.3327C7.99994 11.7013 8.07394 12.0493 8.18527 12.3807L7.53594 12.7553C7.21727 12.9393 7.10793 13.3473 7.29193 13.666C7.41594 13.88 7.63927 13.9993 7.86994 13.9993C7.9826 13.9993 8.09727 13.9707 8.2026 13.91L8.85127 13.5353C9.32127 14.0647 9.94727 14.452 10.6666 14.598V15.332C10.6666 15.7 10.9653 15.9987 11.3333 15.9987C11.7013 15.9987 11.9999 15.7 11.9999 15.332V14.598C12.7193 14.4513 13.3453 14.064 13.8153 13.5353L14.4639 13.91C14.5693 13.9707 14.6839 13.9993 14.7966 13.9993C15.0273 13.9993 15.2513 13.88 15.3746 13.666C15.5586 13.3467 15.4493 12.9393 15.1306 12.7553ZM11.3333 13.3327C10.2306 13.3327 9.33327 12.4353 9.33327 11.3327C9.33327 10.23 10.2306 9.33267 11.3333 9.33267C12.4359 9.33267 13.3333 10.23 13.3333 11.3327C13.3333 12.4353 12.4359 13.3327 11.3333 13.3327Z" fill="black"/>
</svg>
