<svg width="232" height="17" viewBox="0 0 232 17" fill="none" xmlns="http://www.w3.org/2000/svg">
<g clip-path="url(#clip0_4041_14202)">
<path d="M8.00267 15.7753C7.76533 15.7753 7.526 15.6913 7.33533 15.522L4.73733 13.3333H2.33333C1.04667 13.3333 0 12.2867 0 11V2.33333C0 1.04667 1.04667 0 2.33333 0H13.6667C14.9533 0 16 1.04667 16 2.33333V11C16 12.2867 14.9533 13.3333 13.6667 13.3333H11.3127L8.656 15.5293C8.47267 15.6933 8.23867 15.7753 8.00333 15.7753H8.00267ZM2.33333 0.666667C1.41467 0.666667 0.666667 1.41467 0.666667 2.33333V11C0.666667 11.9187 1.41467 12.6667 2.33333 12.6667H4.85933C4.938 12.6667 5.014 12.6947 5.074 12.7453L7.772 15.018C7.90467 15.136 8.09467 15.1367 8.222 15.024L10.9807 12.7433C11.0407 12.694 11.1153 12.6667 11.1927 12.6667H13.6667C14.586 12.6667 15.3333 11.9187 15.3333 11V2.33333C15.3333 1.41467 14.586 0.666667 13.6667 0.666667H2.33333Z" fill="black"/>
</g>
<path d="M23.2 13L20.384 1.832H21.408L23.792 11.816H23.84L26.48 1.832H27.648L30.256 11.816H30.304L32.768 1.832H33.76L30.848 13H29.728L27.056 2.904H27.024L24.32 13H23.2ZM35.6286 1.16H36.5406V6.104H36.5886C36.77 5.67733 37.0526 5.32533 37.4366 5.048C37.8206 4.76 38.3433 4.616 39.0046 4.616C39.8793 4.616 40.5566 4.888 41.0366 5.432C41.5273 5.96533 41.7726 6.73333 41.7726 7.736V13H40.8606V7.896C40.8606 7.064 40.6793 6.44533 40.3166 6.04C39.9646 5.63467 39.4473 5.432 38.7646 5.432C38.4766 5.432 38.1993 5.46933 37.9326 5.544C37.666 5.61867 37.426 5.73067 37.2126 5.88C37.01 6.02933 36.8446 6.22133 36.7166 6.456C36.5993 6.68 36.5406 6.94133 36.5406 7.24V13H35.6286V1.16ZM50.2763 13C49.9243 13 49.6683 12.9093 49.5083 12.728C49.3483 12.5467 49.2576 12.3013 49.2363 11.992V11.704H49.1563C48.9749 12.1627 48.6763 12.5253 48.2603 12.792C47.8443 13.0587 47.3163 13.192 46.6763 13.192C45.8123 13.192 45.1456 12.984 44.6763 12.568C44.2069 12.1413 43.9723 11.544 43.9723 10.776C43.9723 10.0507 44.2283 9.47467 44.7403 9.048C45.2629 8.62133 46.1163 8.408 47.3003 8.408H49.1883V7.448C49.1883 6.09333 48.4896 5.416 47.0923 5.416C46.5483 5.416 46.0949 5.53333 45.7323 5.768C45.3696 5.992 45.0763 6.31733 44.8523 6.744L44.2763 6.264C44.5003 5.784 44.8416 5.38933 45.3003 5.08C45.7696 4.77067 46.3776 4.616 47.1243 4.616C48.0843 4.616 48.8203 4.856 49.3323 5.336C49.8443 5.816 50.1003 6.488 50.1003 7.352V12.2H51.2043V13H50.2763ZM46.8043 12.408C47.1349 12.408 47.4443 12.3653 47.7323 12.28C48.0203 12.1947 48.2709 12.0773 48.4843 11.928C48.7083 11.768 48.8789 11.5813 48.9963 11.368C49.1243 11.144 49.1883 10.8933 49.1883 10.616V9.096H47.2682C46.4469 9.096 45.8496 9.22933 45.4763 9.496C45.1136 9.752 44.9323 10.1093 44.9323 10.568V10.952C44.9323 11.432 45.1029 11.7947 45.4443 12.04C45.7856 12.2853 46.2389 12.408 46.8043 12.408ZM54.521 13C54.1903 13 53.9397 12.9093 53.769 12.728C53.5983 12.5467 53.513 12.3013 53.513 11.992V5.608H52.089V4.808H53.017C53.241 4.808 53.3903 4.76533 53.465 4.68C53.5503 4.584 53.593 4.41867 53.593 4.184V2.52H54.425V4.808H56.281V5.608H54.425V12.2H56.153V13H54.521ZM60.7924 13.192C60.0777 13.192 59.4644 13.0587 58.9524 12.792C58.451 12.5253 58.0137 12.136 57.6404 11.624L58.3124 11.096C58.6537 11.544 59.027 11.8747 59.4324 12.088C59.8377 12.3013 60.3124 12.408 60.8564 12.408C61.4857 12.408 61.971 12.2747 62.3124 12.008C62.6537 11.7413 62.8244 11.3573 62.8244 10.856C62.8244 10.4187 62.691 10.0773 62.4244 9.832C62.1684 9.576 61.7417 9.40533 61.1444 9.32L60.4724 9.208C60.099 9.15467 59.7577 9.07467 59.4484 8.968C59.139 8.86133 58.8724 8.71733 58.6484 8.536C58.435 8.35467 58.2644 8.136 58.1364 7.88C58.019 7.61333 57.9604 7.29333 57.9604 6.92C57.9604 6.536 58.0297 6.2 58.1684 5.912C58.3177 5.624 58.515 5.384 58.7604 5.192C59.0057 5 59.299 4.856 59.6404 4.76C59.9817 4.664 60.3497 4.616 60.7444 4.616C61.427 4.616 61.987 4.73333 62.4244 4.968C62.8617 5.20267 63.235 5.50667 63.5444 5.88L62.9364 6.44C62.723 6.184 62.435 5.94933 62.0724 5.736C61.7204 5.512 61.2617 5.4 60.6964 5.4C60.1097 5.4 59.651 5.528 59.3204 5.784C59.0004 6.04 58.8404 6.40267 58.8404 6.872C58.8404 7.352 58.9844 7.69867 59.2724 7.912C59.571 8.12533 60.0137 8.28 60.6004 8.376L61.2564 8.472C62.0884 8.6 62.7017 8.85067 63.0964 9.224C63.5017 9.58667 63.7044 10.0987 63.7044 10.76C63.7044 11.528 63.443 12.1253 62.9204 12.552C62.4084 12.9787 61.699 13.192 60.7924 13.192ZM73.1541 13L71.9381 9.528H67.1861L65.9701 13H65.0101L68.9621 1.832H70.1941L74.1621 13H73.1541ZM69.5861 2.744H69.5221L67.4261 8.696H71.6821L69.5861 2.744ZM76.0661 4.808H76.9781V6.12H77.0261C77.2288 5.66133 77.5381 5.29867 77.9541 5.032C78.3701 4.75467 78.8928 4.616 79.5221 4.616C80.5781 4.616 81.4048 4.98933 82.0021 5.736C82.5995 6.48267 82.8981 7.53867 82.8981 8.904C82.8981 10.2693 82.5995 11.3253 82.0021 12.072C81.4048 12.8187 80.5781 13.192 79.5221 13.192C78.8928 13.192 78.3755 13.0587 77.9701 12.792C77.5648 12.5147 77.2501 12.1467 77.0261 11.688H76.9781V16.2H76.0661V4.808ZM79.3141 12.376C80.1355 12.376 80.7755 12.1147 81.2341 11.592C81.6928 11.0693 81.9221 10.3653 81.9221 9.48V8.328C81.9221 7.44267 81.6928 6.73867 81.2341 6.216C80.7755 5.69333 80.1355 5.432 79.3141 5.432C78.9941 5.432 78.6901 5.48 78.4021 5.576C78.1248 5.66133 77.8795 5.784 77.6661 5.944C77.4528 6.104 77.2821 6.296 77.1541 6.52C77.0368 6.744 76.9781 6.98933 76.9781 7.256V10.504C76.9781 10.792 77.0368 11.0533 77.1541 11.288C77.2821 11.512 77.4528 11.7093 77.6661 11.88C77.8795 12.04 78.1248 12.1627 78.4021 12.248C78.6901 12.3333 78.9941 12.376 79.3141 12.376ZM85.2536 4.808H86.1656V6.12H86.2136C86.4163 5.66133 86.7256 5.29867 87.1416 5.032C87.5576 4.75467 88.0803 4.616 88.7096 4.616C89.7656 4.616 90.5923 4.98933 91.1896 5.736C91.787 6.48267 92.0856 7.53867 92.0856 8.904C92.0856 10.2693 91.787 11.3253 91.1896 12.072C90.5923 12.8187 89.7656 13.192 88.7096 13.192C88.0803 13.192 87.563 13.0587 87.1576 12.792C86.7523 12.5147 86.4376 12.1467 86.2136 11.688H86.1656V16.2H85.2536V4.808ZM88.5016 12.376C89.323 12.376 89.963 12.1147 90.4216 11.592C90.8803 11.0693 91.1096 10.3653 91.1096 9.48V8.328C91.1096 7.44267 90.8803 6.73867 90.4216 6.216C89.963 5.69333 89.323 5.432 88.5016 5.432C88.1816 5.432 87.8776 5.48 87.5896 5.576C87.3123 5.66133 87.067 5.784 86.8536 5.944C86.6403 6.104 86.4696 6.296 86.3416 6.52C86.2243 6.744 86.1656 6.98933 86.1656 7.256V10.504C86.1656 10.792 86.2243 11.0533 86.3416 11.288C86.4696 11.512 86.6403 11.7093 86.8536 11.88C87.067 12.04 87.3123 12.1627 87.5896 12.248C87.8776 12.3333 88.1816 12.376 88.5016 12.376ZM95.1931 13.144C94.9265 13.144 94.7291 13.08 94.6011 12.952C94.4838 12.8133 94.4251 12.6373 94.4251 12.424V12.248C94.4251 12.0347 94.4838 11.864 94.6011 11.736C94.7291 11.5973 94.9265 11.528 95.1931 11.528C95.4491 11.528 95.6411 11.5973 95.7691 11.736C95.8971 11.864 95.9611 12.0347 95.9611 12.248V12.424C95.9611 12.6373 95.8971 12.8133 95.7691 12.952C95.6411 13.08 95.4491 13.144 95.1931 13.144ZM95.1931 6.28C94.9265 6.28 94.7291 6.216 94.6011 6.088C94.4838 5.94933 94.4251 5.77333 94.4251 5.56V5.384C94.4251 5.17067 94.4838 5 94.6011 4.872C94.7291 4.73333 94.9265 4.664 95.1931 4.664C95.4491 4.664 95.6411 4.73333 95.7691 4.872C95.8971 5 95.9611 5.17067 95.9611 5.384V5.56C95.9611 5.77333 95.8971 5.94933 95.7691 6.088C95.6411 6.216 95.4491 6.28 95.1931 6.28ZM106.579 13.192C105.192 13.192 104.12 12.712 103.363 11.752C102.605 10.7813 102.227 9.34667 102.227 7.448C102.227 5.56 102.605 4.12 103.363 3.128C104.12 2.136 105.192 1.64 106.579 1.64C107.475 1.64 108.227 1.85333 108.835 2.28C109.453 2.70667 109.933 3.288 110.275 4.024L109.491 4.488C109.245 3.88 108.872 3.4 108.371 3.048C107.88 2.68533 107.283 2.504 106.579 2.504C105.533 2.504 104.717 2.87733 104.131 3.624C103.544 4.37067 103.251 5.43733 103.251 6.824V8.088C103.251 9.464 103.544 10.5147 104.131 11.24C104.717 11.9653 105.533 12.328 106.579 12.328C107.325 12.328 107.949 12.1413 108.451 11.768C108.952 11.384 109.325 10.872 109.571 10.232L110.355 10.696C110.024 11.464 109.539 12.072 108.899 12.52C108.259 12.968 107.485 13.192 106.579 13.192ZM112.582 1.16H113.494V6.104H113.542C113.723 5.67733 114.006 5.32533 114.39 5.048C114.774 4.76 115.296 4.616 115.958 4.616C116.832 4.616 117.51 4.888 117.99 5.432C118.48 5.96533 118.726 6.73333 118.726 7.736V13H117.814V7.896C117.814 7.064 117.632 6.44533 117.27 6.04C116.918 5.63467 116.4 5.432 115.718 5.432C115.43 5.432 115.152 5.46933 114.886 5.544C114.619 5.61867 114.379 5.73067 114.166 5.88C113.963 6.02933 113.798 6.22133 113.67 6.456C113.552 6.68 113.494 6.94133 113.494 7.24V13H112.582V1.16ZM127.229 13C126.877 13 126.621 12.9093 126.461 12.728C126.301 12.5467 126.211 12.3013 126.189 11.992V11.704H126.109C125.928 12.1627 125.629 12.5253 125.213 12.792C124.797 13.0587 124.269 13.192 123.629 13.192C122.765 13.192 122.099 12.984 121.629 12.568C121.16 12.1413 120.925 11.544 120.925 10.776C120.925 10.0507 121.181 9.47467 121.693 9.048C122.216 8.62133 123.069 8.408 124.253 8.408H126.141V7.448C126.141 6.09333 125.443 5.416 124.045 5.416C123.501 5.416 123.048 5.53333 122.685 5.768C122.323 5.992 122.029 6.31733 121.805 6.744L121.229 6.264C121.453 5.784 121.795 5.38933 122.253 5.08C122.723 4.77067 123.331 4.616 124.077 4.616C125.037 4.616 125.773 4.856 126.285 5.336C126.797 5.816 127.053 6.488 127.053 7.352V12.2H128.157V13H127.229ZM123.757 12.408C124.088 12.408 124.397 12.3653 124.685 12.28C124.973 12.1947 125.224 12.0773 125.437 11.928C125.661 11.768 125.832 11.5813 125.949 11.368C126.077 11.144 126.141 10.8933 126.141 10.616V9.096H124.221C123.4 9.096 122.803 9.22933 122.429 9.496C122.067 9.752 121.885 10.1093 121.885 10.568V10.952C121.885 11.432 122.056 11.7947 122.397 12.04C122.739 12.2853 123.192 12.408 123.757 12.408ZM131.474 13C131.143 13 130.893 12.9093 130.722 12.728C130.551 12.5467 130.466 12.3013 130.466 11.992V5.608H129.042V4.808H129.97C130.194 4.808 130.343 4.76533 130.418 4.68C130.503 4.584 130.546 4.41867 130.546 4.184V2.52H131.378V4.808H133.234V5.608H131.378V12.2H133.106V13H131.474ZM142.119 13.192C141.575 13.192 141.084 13.096 140.647 12.904C140.209 12.712 139.836 12.4347 139.527 12.072C139.217 11.6987 138.977 11.2453 138.807 10.712C138.636 10.1787 138.551 9.576 138.551 8.904C138.551 8.232 138.636 7.63467 138.807 7.112C138.977 6.57867 139.217 6.13067 139.527 5.768C139.836 5.39467 140.209 5.112 140.647 4.92C141.084 4.71733 141.575 4.616 142.119 4.616C142.663 4.616 143.153 4.71733 143.591 4.92C144.028 5.112 144.401 5.39467 144.711 5.768C145.02 6.13067 145.26 6.57867 145.431 7.112C145.601 7.63467 145.687 8.232 145.687 8.904C145.687 9.576 145.601 10.1787 145.431 10.712C145.26 11.2453 145.02 11.6987 144.711 12.072C144.401 12.4347 144.028 12.712 143.591 12.904C143.153 13.096 142.663 13.192 142.119 13.192ZM142.119 12.376C142.919 12.376 143.548 12.1253 144.007 11.624C144.476 11.1227 144.711 10.3867 144.711 9.416V8.392C144.711 7.432 144.476 6.70133 144.007 6.2C143.548 5.688 142.919 5.432 142.119 5.432C141.319 5.432 140.684 5.68267 140.215 6.184C139.756 6.68533 139.527 7.42133 139.527 8.392V9.416C139.527 10.376 139.756 11.112 140.215 11.624C140.684 12.1253 141.319 12.376 142.119 12.376ZM148.004 13V4.808H148.916V6.104H148.964C149.145 5.67733 149.428 5.32533 149.812 5.048C150.196 4.76 150.718 4.616 151.38 4.616C152.254 4.616 152.932 4.888 153.412 5.432C153.902 5.96533 154.148 6.73333 154.148 7.736V13H153.236V7.896C153.236 7.064 153.054 6.44533 152.692 6.04C152.34 5.63467 151.822 5.432 151.14 5.432C150.852 5.432 150.574 5.46933 150.308 5.544C150.041 5.61867 149.801 5.73067 149.588 5.88C149.385 6.02933 149.22 6.22133 149.092 6.456C148.974 6.68 148.916 6.94133 148.916 7.24V13H148.004ZM162.513 13L159.697 1.832H160.721L163.105 11.816H163.153L165.793 1.832H166.961L169.569 11.816H169.617L172.081 1.832H173.073L170.161 13H169.041L166.369 2.904H166.337L163.633 13H162.513ZM174.941 1.16H175.853V6.104H175.901C176.082 5.67733 176.365 5.32533 176.749 5.048C177.133 4.76 177.656 4.616 178.317 4.616C179.192 4.616 179.869 4.888 180.349 5.432C180.84 5.96533 181.085 6.73333 181.085 7.736V13H180.173V7.896C180.173 7.064 179.992 6.44533 179.629 6.04C179.277 5.63467 178.76 5.432 178.077 5.432C177.789 5.432 177.512 5.46933 177.245 5.544C176.978 5.61867 176.738 5.73067 176.525 5.88C176.322 6.02933 176.157 6.22133 176.029 6.456C175.912 6.68 175.853 6.94133 175.853 7.24V13H174.941V1.16ZM189.589 13C189.237 13 188.981 12.9093 188.821 12.728C188.661 12.5467 188.57 12.3013 188.549 11.992V11.704H188.469C188.287 12.1627 187.989 12.5253 187.573 12.792C187.157 13.0587 186.629 13.192 185.989 13.192C185.125 13.192 184.458 12.984 183.989 12.568C183.519 12.1413 183.285 11.544 183.285 10.776C183.285 10.0507 183.541 9.47467 184.053 9.048C184.575 8.62133 185.429 8.408 186.613 8.408H188.501V7.448C188.501 6.09333 187.802 5.416 186.405 5.416C185.861 5.416 185.407 5.53333 185.045 5.768C184.682 5.992 184.389 6.31733 184.165 6.744L183.589 6.264C183.813 5.784 184.154 5.38933 184.613 5.08C185.082 4.77067 185.69 4.616 186.437 4.616C187.397 4.616 188.133 4.856 188.645 5.336C189.157 5.816 189.413 6.488 189.413 7.352V12.2H190.517V13H189.589ZM186.117 12.408C186.447 12.408 186.757 12.3653 187.045 12.28C187.333 12.1947 187.583 12.0773 187.797 11.928C188.021 11.768 188.191 11.5813 188.309 11.368C188.437 11.144 188.501 10.8933 188.501 10.616V9.096H186.581C185.759 9.096 185.162 9.22933 184.789 9.496C184.426 9.752 184.245 10.1093 184.245 10.568V10.952C184.245 11.432 184.415 11.7947 184.757 12.04C185.098 12.2853 185.551 12.408 186.117 12.408ZM193.834 13C193.503 13 193.252 12.9093 193.082 12.728C192.911 12.5467 192.826 12.3013 192.826 11.992V5.608H191.402V4.808H192.33C192.554 4.808 192.703 4.76533 192.778 4.68C192.863 4.584 192.906 4.41867 192.906 4.184V2.52H193.738V4.808H195.594V5.608H193.738V12.2H195.466V13H193.834ZM200.105 13.192C199.39 13.192 198.777 13.0587 198.265 12.792C197.764 12.5253 197.326 12.136 196.953 11.624L197.625 11.096C197.966 11.544 198.34 11.8747 198.745 12.088C199.15 12.3013 199.625 12.408 200.169 12.408C200.798 12.408 201.284 12.2747 201.625 12.008C201.966 11.7413 202.137 11.3573 202.137 10.856C202.137 10.4187 202.004 10.0773 201.737 9.832C201.481 9.576 201.054 9.40533 200.457 9.32L199.785 9.208C199.412 9.15467 199.07 9.07467 198.761 8.968C198.452 8.86133 198.185 8.71733 197.961 8.536C197.748 8.35467 197.577 8.136 197.449 7.88C197.332 7.61333 197.273 7.29333 197.273 6.92C197.273 6.536 197.342 6.2 197.481 5.912C197.63 5.624 197.828 5.384 198.073 5.192C198.318 5 198.612 4.856 198.953 4.76C199.294 4.664 199.662 4.616 200.057 4.616C200.74 4.616 201.3 4.73333 201.737 4.968C202.174 5.20267 202.548 5.50667 202.857 5.88L202.249 6.44C202.036 6.184 201.748 5.94933 201.385 5.736C201.033 5.512 200.574 5.4 200.009 5.4C199.422 5.4 198.964 5.528 198.633 5.784C198.313 6.04 198.153 6.40267 198.153 6.872C198.153 7.352 198.297 7.69867 198.585 7.912C198.884 8.12533 199.326 8.28 199.913 8.376L200.569 8.472C201.401 8.6 202.014 8.85067 202.409 9.224C202.814 9.58667 203.017 10.0987 203.017 10.76C203.017 11.528 202.756 12.1253 202.233 12.552C201.721 12.9787 201.012 13.192 200.105 13.192ZM212.467 13L211.251 9.528H206.499L205.283 13H204.323L208.275 1.832H209.507L213.475 13H212.467ZM208.899 2.744H208.835L206.739 8.696H210.995L208.899 2.744ZM215.379 4.808H216.291V6.12H216.339C216.541 5.66133 216.851 5.29867 217.267 5.032C217.683 4.75467 218.205 4.616 218.835 4.616C219.891 4.616 220.717 4.98933 221.315 5.736C221.912 6.48267 222.211 7.53867 222.211 8.904C222.211 10.2693 221.912 11.3253 221.315 12.072C220.717 12.8187 219.891 13.192 218.835 13.192C218.205 13.192 217.688 13.0587 217.283 12.792C216.877 12.5147 216.563 12.1467 216.339 11.688H216.291V16.2H215.379V4.808ZM218.627 12.376C219.448 12.376 220.088 12.1147 220.547 11.592C221.005 11.0693 221.235 10.3653 221.235 9.48V8.328C221.235 7.44267 221.005 6.73867 220.547 6.216C220.088 5.69333 219.448 5.432 218.627 5.432C218.307 5.432 218.003 5.48 217.715 5.576C217.437 5.66133 217.192 5.784 216.979 5.944C216.765 6.104 216.595 6.296 216.467 6.52C216.349 6.744 216.291 6.98933 216.291 7.256V10.504C216.291 10.792 216.349 11.0533 216.467 11.288C216.595 11.512 216.765 11.7093 216.979 11.88C217.192 12.04 217.437 12.1627 217.715 12.248C218.003 12.3333 218.307 12.376 218.627 12.376ZM224.566 4.808H225.478V6.12H225.526C225.729 5.66133 226.038 5.29867 226.454 5.032C226.87 4.75467 227.393 4.616 228.022 4.616C229.078 4.616 229.905 4.98933 230.502 5.736C231.099 6.48267 231.398 7.53867 231.398 8.904C231.398 10.2693 231.099 11.3253 230.502 12.072C229.905 12.8187 229.078 13.192 228.022 13.192C227.393 13.192 226.875 13.0587 226.47 12.792C226.065 12.5147 225.75 12.1467 225.526 11.688H225.478V16.2H224.566V4.808ZM227.814 12.376C228.635 12.376 229.275 12.1147 229.734 11.592C230.193 11.0693 230.422 10.3653 230.422 9.48V8.328C230.422 7.44267 230.193 6.73867 229.734 6.216C229.275 5.69333 228.635 5.432 227.814 5.432C227.494 5.432 227.19 5.48 226.902 5.576C226.625 5.66133 226.379 5.784 226.166 5.944C225.953 6.104 225.782 6.296 225.654 6.52C225.537 6.744 225.478 6.98933 225.478 7.256V10.504C225.478 10.792 225.537 11.0533 225.654 11.288C225.782 11.512 225.953 11.7093 226.166 11.88C226.379 12.04 226.625 12.1627 226.902 12.248C227.19 12.3333 227.494 12.376 227.814 12.376Z" fill="black"/>
<defs>
<clipPath id="clip0_4041_14202">
<rect width="16" height="16" fill="white"/>
</clipPath>
</defs>
</svg>
