<svg width="12" height="16" viewBox="0 0 12 16" fill="none" xmlns="http://www.w3.org/2000/svg">
<path d="M11.4014 8.72299C11.2654 8.43433 11.1114 8.13566 10.9421 7.82699C10.7921 7.55433 10.7141 7.22566 10.7161 6.87566C10.7201 6.12166 10.6714 5.35766 10.5714 4.60433C10.2834 2.43366 8.24677 0.666992 5.96744 0.666992C3.75277 0.666992 1.71677 2.43299 1.4281 4.60433C1.3281 5.35766 1.27944 6.12166 1.28344 6.87566C1.28544 7.22499 1.20744 7.55433 1.05677 7.82766C0.888103 8.13433 0.734103 8.43233 0.59877 8.71966C0.265437 9.42633 0.23877 10.2163 0.524103 10.943C0.808103 11.669 1.36277 12.2303 2.08477 12.5223C2.5321 12.703 3.0061 12.8537 3.61544 12.9597C3.6261 14.2703 4.69144 15.3337 5.99944 15.3337C7.30744 15.3337 8.37077 14.273 8.38344 12.9643C8.9921 12.8597 9.4641 12.709 9.9221 12.5223C10.6421 12.229 11.1941 11.6683 11.4768 10.9437C11.7601 10.2177 11.7334 9.42899 11.4014 8.72299ZM6.0001 14.0003C5.47544 14.0003 5.03944 13.6103 4.96144 13.103C5.2761 13.1197 5.61944 13.1283 5.99944 13.1283C6.37944 13.1283 6.72477 13.1203 7.03877 13.1043C6.9601 13.611 6.5241 14.0003 6.0001 14.0003ZM10.2354 10.459C10.0868 10.8397 9.79744 11.1337 9.4201 11.2877C8.6501 11.601 7.80944 11.795 6.0001 11.795C4.20544 11.795 3.36277 11.6003 2.58544 11.2857C2.2061 11.1323 1.91544 10.8383 1.7661 10.4563C1.6161 10.0743 1.63077 9.65899 1.8061 9.28699C1.9301 9.02299 2.07144 8.75033 2.22544 8.46966C2.48477 7.99766 2.6201 7.44366 2.61677 6.86833C2.61344 6.17566 2.6581 5.47299 2.74944 4.78033C2.94944 3.27366 4.42277 2.00099 6.03144 2.00099C7.57544 2.00099 9.04877 3.27366 9.24944 4.78033C9.34144 5.47366 9.3861 6.17633 9.3821 6.86899C9.37877 7.44566 9.5141 7.99966 9.77344 8.47033C9.9281 8.75299 10.0701 9.02699 10.1948 9.29166C10.3694 9.66299 10.3841 10.0783 10.2348 10.4597L10.2354 10.459Z" fill="black"/>
</svg>
