<svg width="59" height="39" viewBox="0 0 59 39" fill="none" xmlns="http://www.w3.org/2000/svg">
<g clip-path="url(#clip0_4520_14866)">
<path d="M38.1035 9.75H47.8631C48.6744 9.75 49.4364 10.1522 49.8912 10.8103L54.0827 18.2812H55.3119C56.6885 18.2812 57.7702 19.1831 57.7702 20.9747V29.25C57.7702 30.5906 56.6639 31.6875 55.3119 31.6875H52.8535" stroke="white" stroke-width="2" stroke-miterlimit="10"/>
<path d="M17.209 1.21875H38.1048V31.6875H19.6673" stroke="white" stroke-width="2" stroke-miterlimit="10"/>
<path d="M9.83333 31.6875H3.6875" stroke="white" stroke-width="2" stroke-miterlimit="10"/>
<path d="M52.854 32.9175C52.854 35.5987 50.6538 37.7803 47.9251 37.7803C45.2086 37.7803 42.9961 35.5987 42.9961 32.9175C42.9961 30.2362 45.1963 28.0547 47.9251 28.0547C50.6538 28.0547 52.854 30.2241 52.854 32.9175Z" stroke="white" stroke-width="2" stroke-miterlimit="10"/>
<path d="M19.6919 32.9175C19.6919 35.5987 17.4917 37.7803 14.7629 37.7803C12.0342 37.7803 9.83398 35.5987 9.83398 32.9175C9.83398 30.2362 12.0342 28.0547 14.7629 28.0547C17.4917 28.0547 19.6919 30.2241 19.6919 32.9175Z" stroke="white" stroke-width="2" stroke-miterlimit="10"/>
<path d="M38.1035 31.6875H43.0202" stroke="white" stroke-width="2" stroke-miterlimit="10"/>
<path d="M40.5625 19.5H49.1667V18.2812L46.7083 14.625" stroke="white" stroke-width="2" stroke-miterlimit="10"/>
<path d="M0 15.8438H20.8958" stroke="white" stroke-width="2" stroke-miterlimit="10"/>
<path d="M9.83398 8.53125H28.2715" stroke="white" stroke-width="2" stroke-miterlimit="10"/>
<path d="M7.37435 8.53125H4.91602" stroke="white" stroke-width="2" stroke-miterlimit="10"/>
<path d="M14.7493 1.21875H12.291" stroke="white" stroke-width="2" stroke-miterlimit="10"/>
</g>
<defs>
<clipPath id="clip0_4520_14866">
<rect width="59" height="39" fill="white"/>
</clipPath>
</defs>
</svg>
