<svg width="24" height="24" viewBox="0 0 24 24" fill="none" xmlns="http://www.w3.org/2000/svg">
<path d="M17 15C13.296 15 11.202 17.252 10.284 18.595C9.908 19.145 9.908 19.856 10.284 20.406C11.202 21.749 13.296 24.001 17 24.001C20.704 24.001 22.798 21.749 23.716 20.406C24.092 19.856 24.092 19.145 23.716 18.595C22.798 17.252 20.704 15 17 15ZM22.891 19.841C22.084 21.021 20.245 23 17 23C13.755 23 11.916 21.021 11.109 19.841C10.963 19.627 10.963 19.373 11.109 19.159C11.917 17.979 13.755 16 17 16C20.245 16 22.084 17.979 22.891 19.159C23.037 19.373 23.037 19.627 22.891 19.841ZM17 17.5C15.897 17.5 15 18.397 15 19.5C15 20.603 15.897 21.5 17 21.5C18.103 21.5 19 20.603 19 19.5C19 18.397 18.103 17.5 17 17.5ZM17 20.5C16.449 20.5 16 20.052 16 19.5C16 18.948 16.449 18.5 17 18.5C17.551 18.5 18 18.948 18 19.5C18 20.052 17.551 20.5 17 20.5ZM6 5.5C6 6.052 5.552 6.5 5 6.5C4.448 6.5 4 6.052 4 5.5C4 4.948 4.448 4.5 5 4.5C5.552 4.5 6 4.948 6 5.5ZM6 16.5C6 17.052 5.552 17.5 5 17.5C4.448 17.5 4 17.052 4 16.5C4 15.948 4.448 15.5 5 15.5C5.552 15.5 6 15.948 6 16.5ZM6 11C6 11.552 5.552 12 5 12C4.448 12 4 11.552 4 11C4 10.448 4.448 10 5 10C5.552 10 6 10.448 6 11ZM9 5.5C9 5.224 9.224 5 9.5 5H19.5C19.776 5 20 5.224 20 5.5C20 5.776 19.776 6 19.5 6H9.5C9.224 6 9 5.776 9 5.5ZM19.5 11.5H9.5C9.224 11.5 9 11.276 9 11C9 10.724 9.224 10.5 9.5 10.5H19.5C19.776 10.5 20 10.724 20 11C20 11.276 19.776 11.5 19.5 11.5ZM24 4.5V14.5C24 14.776 23.776 15 23.5 15C23.224 15 23 14.776 23 14.5V4.5C23 2.57 21.43 1 19.5 1H4.5C2.57 1 1 2.57 1 4.5V17.5C1 19.43 2.57 21 4.5 21H8C8.276 21 8.5 21.224 8.5 21.5C8.5 21.776 8.276 22 8 22H4.5C2.019 22 0 19.981 0 17.5V4.5C0 2.019 2.019 0 4.5 0H19.5C21.981 0 24 2.019 24 4.5Z" fill="#808080"/>
</svg>
