<svg width="25" height="24" viewBox="0 0 25 24" fill="none" xmlns="http://www.w3.org/2000/svg">
<g clip-path="url(#clip0_3255_8367)">
<path d="M17.5 15C13.796 15 11.702 17.252 10.784 18.595C10.408 19.145 10.408 19.856 10.784 20.406C11.702 21.749 13.796 24.001 17.5 24.001C21.204 24.001 23.298 21.749 24.216 20.406C24.592 19.856 24.592 19.145 24.216 18.595C23.298 17.252 21.204 15 17.5 15ZM23.391 19.841C22.584 21.021 20.745 23 17.5 23C14.255 23 12.416 21.021 11.609 19.841C11.463 19.627 11.463 19.373 11.609 19.159C12.417 17.979 14.255 16 17.5 16C20.745 16 22.584 17.979 23.391 19.159C23.537 19.373 23.537 19.627 23.391 19.841ZM17.5 17.5C16.397 17.5 15.5 18.397 15.5 19.5C15.5 20.603 16.397 21.5 17.5 21.5C18.603 21.5 19.5 20.603 19.5 19.5C19.5 18.397 18.603 17.5 17.5 17.5ZM17.5 20.5C16.949 20.5 16.5 20.052 16.5 19.5C16.5 18.948 16.949 18.5 17.5 18.5C18.051 18.5 18.5 18.948 18.5 19.5C18.5 20.052 18.051 20.5 17.5 20.5ZM6.5 5.5C6.5 6.052 6.052 6.5 5.5 6.5C4.948 6.5 4.5 6.052 4.5 5.5C4.5 4.948 4.948 4.5 5.5 4.5C6.052 4.5 6.5 4.948 6.5 5.5ZM6.5 16.5C6.5 17.052 6.052 17.5 5.5 17.5C4.948 17.5 4.5 17.052 4.5 16.5C4.5 15.948 4.948 15.5 5.5 15.5C6.052 15.5 6.5 15.948 6.5 16.5ZM6.5 11C6.5 11.552 6.052 12 5.5 12C4.948 12 4.5 11.552 4.5 11C4.5 10.448 4.948 10 5.5 10C6.052 10 6.5 10.448 6.5 11ZM9.5 5.5C9.5 5.224 9.724 5 10 5H20C20.276 5 20.5 5.224 20.5 5.5C20.5 5.776 20.276 6 20 6H10C9.724 6 9.5 5.776 9.5 5.5ZM20 11.5H10C9.724 11.5 9.5 11.276 9.5 11C9.5 10.724 9.724 10.5 10 10.5H20C20.276 10.5 20.5 10.724 20.5 11C20.5 11.276 20.276 11.5 20 11.5ZM24.5 4.5V14.5C24.5 14.776 24.276 15 24 15C23.724 15 23.5 14.776 23.5 14.5V4.5C23.5 2.57 21.93 1 20 1H5C3.07 1 1.5 2.57 1.5 4.5V17.5C1.5 19.43 3.07 21 5 21H8.5C8.776 21 9 21.224 9 21.5C9 21.776 8.776 22 8.5 22H5C2.519 22 0.5 19.981 0.5 17.5V4.5C0.5 2.019 2.519 0 5 0H20C22.481 0 24.5 2.019 24.5 4.5Z" fill="white"/>
</g>
<defs>
<clipPath id="clip0_3255_8367">
<rect width="24" height="24" fill="white" transform="translate(0.5)"/>
</clipPath>
</defs>
</svg>
