<svg width="25" height="24" viewBox="0 0 25 24" fill="none" xmlns="http://www.w3.org/2000/svg">
<path d="M9.5 12C12.809 12 15.5 9.309 15.5 6C15.5 2.691 12.809 0 9.5 0C6.191 0 3.5 2.691 3.5 6C3.5 9.309 6.191 12 9.5 12ZM9.5 1C12.257 1 14.5 3.243 14.5 6C14.5 8.757 12.257 11 9.5 11C6.743 11 4.5 8.757 4.5 6C4.5 3.243 6.743 1 9.5 1ZM11 14.5C11 14.776 10.776 15 10.5 15H10C5.313 15 1.5 18.813 1.5 23.5C1.5 23.776 1.276 24 1 24C0.724 24 0.5 23.776 0.5 23.5C0.5 18.262 4.762 14 10 14H10.5C10.776 14 11 14.224 11 14.5ZM24.414 16.759C24.211 16.202 23.676 15.828 23.083 15.828H20.685L19.829 13.422C19.623 12.871 19.09 12.5 18.501 12.5C17.912 12.5 17.379 12.871 17.171 13.429L16.317 15.828H13.919C13.327 15.828 12.793 16.201 12.589 16.755C12.384 17.311 12.55 17.942 13.01 18.331L14.922 19.887L14.165 22.159C13.986 22.732 14.188 23.359 14.668 23.717C14.911 23.9 15.213 24 15.517 24C15.799 24 16.072 23.917 16.305 23.761L18.513 22.283L20.761 23.747C21.265 24.073 21.921 24.048 22.4 23.682C22.876 23.315 23.068 22.686 22.877 22.106L22.096 19.879L23.999 18.329C24.452 17.947 24.62 17.316 24.417 16.76L24.414 16.759ZM23.358 17.558L21.189 19.325C21.025 19.458 20.962 19.679 21.033 19.878L21.928 22.428C21.984 22.596 21.928 22.782 21.788 22.888C21.645 22.996 21.452 23.004 21.304 22.908L18.78 21.264C18.613 21.155 18.396 21.157 18.229 21.267L15.747 22.929C15.604 23.024 15.405 23.021 15.267 22.915C15.125 22.81 15.066 22.625 15.117 22.464L15.979 19.873C16.044 19.676 15.981 19.458 15.82 19.328L13.648 17.561C13.516 17.449 13.467 17.264 13.528 17.1C13.588 16.936 13.745 16.827 13.919 16.827H16.67C16.882 16.827 17.07 16.694 17.141 16.495L18.112 13.77C18.233 13.445 18.774 13.452 18.891 13.763L19.864 16.494C19.934 16.693 20.123 16.826 20.335 16.826H23.086C23.261 16.826 23.418 16.936 23.478 17.1C23.538 17.264 23.488 17.45 23.362 17.557L23.358 17.558Z" fill="white"/>
</svg>
