<svg width="16" height="17" viewBox="0 0 16 17" fill="none" xmlns="http://www.w3.org/2000/svg">
<g clip-path="url(#clip0_3281_1105)">
<path d="M15.6667 7.70052C15.4827 7.70052 15.3333 7.55119 15.3333 7.36719C15.3333 3.87519 12.492 1.03385 9 1.03385C8.816 1.03385 8.66667 0.884521 8.66667 0.700521C8.66667 0.516521 8.816 0.367188 9 0.367188C12.86 0.367188 16 3.50719 16 7.36719C16 7.55119 15.8507 7.70052 15.6667 7.70052ZM13.3333 7.36719C13.3333 4.97785 11.3893 3.03385 9 3.03385C8.816 3.03385 8.66667 3.18319 8.66667 3.36719C8.66667 3.55119 8.816 3.70052 9 3.70052C11.022 3.70052 12.6667 5.34519 12.6667 7.36719C12.6667 7.55119 12.816 7.70052 13 7.70052C13.184 7.70052 13.3333 7.55119 13.3333 7.36719ZM14.8227 15.2145L15.4747 14.4645C15.8133 14.1259 16 13.6752 16 13.1965C16 12.7179 15.8133 12.2665 15.442 11.8999L13.8113 10.6512C13.1127 9.95252 11.976 9.95185 11.276 10.6492L10.2547 11.6452C7.80133 10.6459 5.80267 8.64519 4.72533 6.10985L5.71733 5.09319C6.41667 4.39385 6.41667 3.25585 5.746 2.58919L4.44 0.893854C3.762 0.215854 2.56467 0.231854 1.92 0.878521L1.13733 1.56119C0.403333 2.29119 0 3.28252 0 4.35119C0 9.51719 6.85 16.3672 12.016 16.3672C13.0847 16.3672 14.0753 15.9639 14.8227 15.2145ZM3.93933 1.33119L5.24533 3.02652C5.68467 3.46585 5.68467 4.18119 5.24267 4.62385L4.09467 5.80119C4.00267 5.89585 3.97467 6.03585 4.024 6.15852C5.17667 9.02852 7.43267 11.2839 10.2147 12.3452C10.336 12.3919 10.4733 12.3632 10.566 12.2732L11.7433 11.1252C11.7433 11.1252 11.7453 11.1232 11.746 11.1219C12.172 10.6952 12.882 10.6679 13.3727 11.1505L15.0033 12.3992C15.4427 12.8385 15.4427 13.5532 14.988 14.0099L14.3353 14.7599C13.73 15.3665 12.906 15.7005 12.016 15.7005C7.24267 15.7005 0.666667 9.12452 0.666667 4.35119C0.666667 3.46119 1.00067 2.63719 1.59133 2.04719L2.37467 1.36385C2.59867 1.13985 2.894 1.03052 3.18467 1.03052C3.464 1.03052 3.73867 1.13185 3.94 1.33185L3.93933 1.33119Z" fill="black"/>
</g>
<defs>
<clipPath id="clip0_3281_1105">
<rect width="16" height="16" fill="white" transform="translate(0 0.367188)"/>
</clipPath>
</defs>
</svg>
