<svg width="16" height="17" viewBox="0 0 16 17" fill="none" xmlns="http://www.w3.org/2000/svg">
<path d="M13 1.70117H3C1.346 1.70117 0 3.04717 0 4.70117V12.0345C0 13.6885 1.346 15.0345 3 15.0345H13C14.654 15.0345 16 13.6885 16 12.0345V4.70117C16 3.04717 14.654 1.70117 13 1.70117ZM3 2.36784H13C13.7227 2.36784 14.362 2.70517 14.7907 3.22317L9.66333 8.35117C9.222 8.79184 8.62533 9.0345 7.99867 9.0345C7.38933 9.02317 6.78133 8.79451 6.33733 8.35117L1.20933 3.22317C1.638 2.70517 2.27667 2.36784 3 2.36784ZM15.3333 12.0345C15.3333 13.3212 14.2867 14.3678 13 14.3678H3C1.71333 14.3678 0.666667 13.3212 0.666667 12.0345V4.70117C0.666667 4.38317 0.731333 4.0805 0.847333 3.80384L5.866 8.8225C6.43333 9.38984 7.186 9.70117 7.984 9.70117C8.782 9.70117 9.56733 9.38984 10.1347 8.8225L15.1533 3.80384C15.2693 4.0805 15.334 4.38317 15.334 4.70117L15.3333 12.0345Z" fill="black"/>
</svg>
