<svg width="13" height="16" viewBox="0 0 13 16" fill="none" xmlns="http://www.w3.org/2000/svg">
<path d="M12.9999 5.33286V4.99953C12.9999 3.63553 12.4606 2.36086 11.4819 1.41086C10.5033 0.460861 9.20459 -0.0311392 7.84725 0.00152743C5.17458 0.0815274 2.99992 2.41153 2.99992 5.19486V7.99953H0.999919V8.66619H2.99992V12.6662C2.99992 14.1369 1.80392 15.3329 0.333252 15.3329V15.9995H12.9999V15.3329H2.33125C3.14192 14.7242 3.66658 13.7555 3.66658 12.6662V8.66619H9.66658V7.99953H3.66658V5.19486C3.66658 2.76819 5.55059 0.737527 7.86658 0.668194C9.05659 0.622194 10.1693 1.06619 11.0179 1.88953C11.8659 2.71286 12.3339 3.81753 12.3339 4.99953V5.33286H12.9999Z" fill="black" fill-opacity="0.5"/>
</svg>
