<svg width="24" height="24" viewBox="0 0 24 24" fill="none" xmlns="http://www.w3.org/2000/svg">
<g clip-path="url(#clip0_3319_6428)">
<path d="M20 15.5C20 15.776 19.776 16 19.5 16H16.5C16.224 16 16 15.776 16 15.5C16 15.224 16.224 15 16.5 15H19.5C19.776 15 20 15.224 20 15.5ZM24 14.5V20.5C24 22.43 22.43 24 20.5 24H3.5C1.57 24 0 22.43 0 20.5V14.5C0 12.57 1.57 11 3.5 11H5V3.5C5 1.57 6.57 0 8.5 0H15.5C17.43 0 19 1.57 19 3.5V11H20.5C22.43 11 24 12.57 24 14.5ZM6 11H18V3.5C18 2.121 16.879 1 15.5 1H8.5C7.121 1 6 2.121 6 3.5V11ZM3.5 23H11.5V12H3.5C2.121 12 1 13.121 1 14.5V20.5C1 21.879 2.121 23 3.5 23ZM23 14.5C23 13.121 21.879 12 20.5 12H12.5V23H20.5C21.879 23 23 21.879 23 20.5V14.5ZM7.5 15H4.5C4.224 15 4 15.224 4 15.5C4 15.776 4.224 16 4.5 16H7.5C7.776 16 8 15.776 8 15.5C8 15.224 7.776 15 7.5 15ZM14 4.5C14 4.224 13.776 4 13.5 4H10.5C10.224 4 10 4.224 10 4.5C10 4.776 10.224 5 10.5 5H13.5C13.776 5 14 4.776 14 4.5Z" fill="#808080"/>
</g>
<defs>
<clipPath id="clip0_3319_6428">
<rect width="24" height="24" fill="white"/>
</clipPath>
</defs>
</svg>
