<svg width="25" height="24" viewBox="0 0 25 24" fill="none" xmlns="http://www.w3.org/2000/svg">
<path d="M22.306 12.815C22.565 12.297 22.565 11.703 22.306 11.185C21.691 9.957 18.012 5 12.5 5C6.988 5 3.31 9.958 2.695 11.184C2.434 11.703 2.434 12.298 2.695 12.817C3.311 14.044 6.991 19 12.5 19C18.009 19 21.69 14.042 22.306 12.815ZM12.5 18C7.498 18 4.149 13.486 3.588 12.368C3.471 12.135 3.471 11.867 3.588 11.633C4.149 10.515 7.496 6 12.5 6C17.504 6 20.851 10.515 21.412 11.632C21.529 11.866 21.529 12.133 21.412 12.367C20.851 13.485 17.504 18 12.5 18ZM12.5 9C10.846 9 9.5 10.346 9.5 12C9.5 13.654 10.846 15 12.5 15C14.154 15 15.5 13.654 15.5 12C15.5 10.346 14.154 9 12.5 9ZM12.5 14C11.397 14 10.5 13.103 10.5 12C10.5 10.897 11.397 10 12.5 10C13.603 10 14.5 10.897 14.5 12C14.5 13.103 13.603 14 12.5 14ZM1.5 7H0.5V2.5C0.5 1.122 1.622 0 3 0H7.5V1H3C2.173 1 1.5 1.673 1.5 2.5V7ZM3 23H7.5V24H3C1.622 24 0.5 22.878 0.5 21.5V17H1.5V21.5C1.5 22.327 2.173 23 3 23ZM23.5 17H24.5V21.5C24.5 22.878 23.378 24 22 24H17.5V23H22C22.827 23 23.5 22.327 23.5 21.5V17ZM24.5 2.5V7H23.5V2.5C23.5 1.673 22.827 1 22 1H17.5V0H22C23.378 0 24.5 1.122 24.5 2.5Z" fill="#2D2D4C"/>
</svg>
