<svg width="56" height="56" viewBox="0 0 56 56" fill="none" xmlns="http://www.w3.org/2000/svg">
<rect width="56" height="56" rx="28" fill="#2D2D4C"/>
<g clip-path="url(#clip0_3799_2070)">
<path d="M37 20V18.5C37 17.121 35.878 16 34.5 16H18.5C17.122 16 16 17.121 16 18.5V22.5C16 23.879 17.122 25 18.5 25H34.5C35.878 25 37 23.879 37 22.5V21C38.103 21 39 21.897 39 23V25C39 26.103 38.103 27 37 27H29.5C27.57 27 26 28.57 26 30.5V31.05C24.86 31.282 24 32.292 24 33.5V37.5C24 38.879 25.122 40 26.5 40C27.878 40 29 38.879 29 37.5V33.5C29 32.292 28.14 31.283 27 31.05V30.5C27 29.121 28.122 28 29.5 28H37C38.654 28 40 26.654 40 25V23C40 21.346 38.654 20 37 20ZM36 22.5C36 23.327 35.327 24 34.5 24H18.5C17.673 24 17 23.327 17 22.5V18.5C17 17.673 17.673 17 18.5 17H34.5C35.327 17 36 17.673 36 18.5V22.5ZM28 33.5V37.5C28 38.327 27.327 39 26.5 39C25.673 39 25 38.327 25 37.5V33.5C25 32.673 25.673 32 26.5 32C27.327 32 28 32.673 28 33.5Z" fill="white"/>
</g>
<defs>
<clipPath id="clip0_3799_2070">
<rect width="24" height="24" fill="white" transform="translate(16 16)"/>
</clipPath>
</defs>
</svg>
