<svg width="56" height="56" viewBox="0 0 56 56" fill="none" xmlns="http://www.w3.org/2000/svg">
<rect width="56" height="56" rx="28" fill="#2D2D4C"/>
<g clip-path="url(#clip0_3799_6252)">
<path d="M33.418 30.9999C30.981 30.9999 29 33.0189 29 35.4999C29 38.0759 31.618 39.9999 33.959 39.9999H37.835C38.541 39.9999 39.203 39.6669 39.608 39.1099C39.995 38.5779 40.101 37.9179 39.9 37.2979C39.136 34.9459 37.279 31.0009 33.418 31.0009V30.9999ZM38.799 38.5219C38.582 38.8209 38.221 38.9999 37.835 38.9999H33.959C32.128 38.9999 30 37.4709 30 35.4999C30 33.5699 31.534 31.9999 33.418 31.9999C36.647 31.9999 38.269 35.5119 38.949 37.6059C39.051 37.9179 38.995 38.2519 38.799 38.5219ZM39.999 19.2409C39.999 18.3739 39.663 17.5599 39.051 16.9489H39.05C37.827 15.7249 35.687 15.7249 34.466 16.9489L17.43 33.9849C16.508 34.9069 16 36.1319 16 37.4359V39.4989C16 39.7749 16.224 39.9989 16.5 39.9989H18.564C19.868 39.9989 21.093 39.4909 22.015 38.5689L39.052 21.5339C39.663 20.9229 40 20.1089 40 19.2419L39.999 19.2409ZM21.308 37.8629C20.575 38.5959 19.6 38.9999 18.564 38.9999H17V37.4369C17 36.3999 17.404 35.4259 18.137 34.6929L31.429 21.3999L34.6 24.5709L21.308 37.8629ZM38.345 20.8269L35.307 23.8649L32.136 20.6939L35.174 17.6559C36.017 16.8109 37.499 16.8109 38.343 17.6559C38.765 18.0799 38.999 18.6429 38.999 19.2419C38.999 19.8409 38.767 20.4049 38.345 20.8269ZM16.808 21.3899C16.225 20.7169 15.947 19.8809 16.009 19.0159C16.071 18.1509 16.465 17.3629 17.117 16.7969C17.772 16.2299 18.604 15.9529 19.474 16.0149C20.339 16.0769 21.127 16.4709 21.692 17.1239L25.885 22.1809C26.061 22.3939 26.032 22.7089 25.82 22.8849C25.605 23.0619 25.291 23.0319 25.116 22.8199L20.929 17.7709C20.545 17.3269 20.001 17.0549 19.402 17.0119C18.809 16.9699 18.226 17.1599 17.774 17.5519C17.321 17.9449 17.049 18.4899 17.006 19.0879C16.964 19.6869 17.155 20.2649 17.547 20.7159L22.331 25.6839C22.522 25.8829 22.517 26.1989 22.317 26.3909C22.22 26.4839 22.095 26.5309 21.97 26.5309C21.839 26.5309 21.708 26.4799 21.61 26.3779L16.808 21.3899Z" fill="white"/>
</g>
<defs>
<clipPath id="clip0_3799_6252">
<rect width="24" height="24" fill="white" transform="translate(16 16)"/>
</clipPath>
</defs>
</svg>
