<svg width="24" height="24" viewBox="0 0 24 24" fill="none" xmlns="http://www.w3.org/2000/svg">
<path d="M9.79998 9.80186C9.04498 10.5549 8.67798 11.2779 8.67798 12.0099C8.67798 12.9669 9.31798 13.7159 9.79998 14.1969C10.54 14.9359 11.27 15.3049 12 15.3049C12.73 15.3049 13.46 14.9349 14.2 14.1969C14.955 13.4439 15.322 12.7209 15.322 11.9889C15.322 11.0319 14.682 10.2829 14.2 9.80186C12.72 8.32386 11.28 8.32386 9.79998 9.80186ZM13.494 13.4899C12.243 14.7379 11.452 14.4339 10.506 13.4899C9.94098 12.9259 9.67798 12.4559 9.67798 12.0109C9.67798 11.5569 9.94898 11.0669 10.506 10.5109C11.089 9.92886 11.571 9.68486 12.017 9.68486C12.528 9.68486 12.989 10.0069 13.495 10.5109C14.06 11.0749 14.323 11.5449 14.323 11.9899C14.323 12.4439 14.051 12.9339 13.494 13.4899Z" fill="#808080"/>
<path d="M9.79998 9.80381C9.04498 10.5568 8.67798 11.2798 8.67798 12.0118C8.67798 12.9688 9.31798 13.7178 9.79998 14.1988C10.54 14.9378 11.27 15.3068 12 15.3068C12.73 15.3068 13.46 14.9368 14.2 14.1988C14.955 13.4458 15.322 12.7228 15.322 11.9908C15.322 11.0338 14.682 10.2848 14.2 9.80381C12.72 8.32581 11.28 8.32581 9.79998 9.80381ZM13.494 13.4918C12.243 14.7398 11.452 14.4358 10.506 13.4918C9.94098 12.9278 9.67798 12.4578 9.67798 12.0128C9.67798 11.5588 9.94898 11.0688 10.506 10.5128C11.089 9.93081 11.571 9.68681 12.017 9.68681C12.528 9.68681 12.989 10.0088 13.495 10.5128C14.06 11.0768 14.323 11.5468 14.323 11.9918C14.323 12.4458 14.051 12.9358 13.494 13.4918Z" fill="#808080"/>
<path d="M23.019 11.949C23.027 10.354 22.202 9.46795 20.498 9.24895C20.31 8.85495 20.081 8.46195 19.804 8.06095C21.009 6.60495 21.014 5.36695 19.83 4.18495C18.647 3.00395 17.405 3.00995 15.946 4.21395C15.545 3.93995 15.152 3.71295 14.758 3.52595C14.541 1.81995 13.624 1.00195 12.053 1.00195C10.451 1.00995 9.55797 1.85095 9.32797 3.57095C8.93597 3.75995 8.53697 3.99195 8.13797 4.26195C6.68697 3.06495 5.44397 3.06795 4.24797 4.26195C3.06997 5.43695 3.06797 6.70995 4.24697 8.14395C3.97397 8.54395 3.74097 8.94195 3.55097 9.33295C1.83197 9.56195 0.990968 10.455 0.982968 12.054C0.974968 13.649 1.79997 14.535 3.50397 14.754C3.69197 15.148 3.92097 15.541 4.19797 15.942C2.99297 17.398 2.98797 18.636 4.17197 19.818C5.35597 21 6.59697 20.994 8.05597 19.789C8.45697 20.063 8.84997 20.29 9.24397 20.477C9.45997 22.174 10.357 23.001 11.926 23.001C13.531 23.001 14.445 22.152 14.675 20.432C15.067 20.243 15.466 20.011 15.865 19.741C17.316 20.938 18.559 20.934 19.755 19.741C20.933 18.566 20.935 17.293 19.756 15.859C20.029 15.459 20.262 15.061 20.452 14.67C22.171 14.441 23.012 13.548 23.02 11.949H23.019ZM19.659 14.002C19.432 14.517 19.115 15.053 18.717 15.596C18.575 15.789 18.59 16.055 18.753 16.231C20.126 17.718 19.651 18.431 19.048 19.033C18.418 19.661 17.727 20.111 16.236 18.738C16.061 18.576 15.796 18.562 15.602 18.702C15.061 19.097 14.525 19.412 14.007 19.639C13.84 19.712 13.725 19.871 13.71 20.054C13.571 21.669 12.931 21.996 11.944 22.001C10.936 21.974 10.335 21.697 10.21 20.101C10.195 19.915 10.079 19.753 9.90797 19.68C9.38697 19.458 8.86697 19.154 8.31997 18.751C8.23097 18.686 8.12697 18.654 8.02397 18.654C7.90197 18.654 7.78097 18.698 7.68597 18.786C6.18297 20.169 5.47497 19.705 4.87897 19.11C4.28397 18.516 3.81897 17.811 5.20197 16.313C5.36497 16.136 5.37997 15.869 5.23697 15.676C4.83697 15.135 4.52097 14.601 4.29997 14.088C4.22697 13.918 4.06597 13.802 3.88097 13.787C2.29397 13.661 1.97797 13.032 1.98297 12.058C1.98797 11.074 2.31597 10.436 3.92897 10.297C4.11097 10.281 4.26997 10.168 4.34397 10.001C4.57097 9.48595 4.88797 8.94995 5.28597 8.40695C5.42797 8.21395 5.41297 7.94795 5.24997 7.77195C3.87697 6.28495 4.35197 5.57195 4.95497 4.96995C5.56097 4.36595 6.27597 3.88995 7.76697 5.26495C7.94297 5.42795 8.20797 5.44295 8.40097 5.30095C8.94197 4.90595 9.47797 4.59095 9.99597 4.36395C10.163 4.29095 10.278 4.13195 10.293 3.94895C10.432 2.33395 11.072 2.00695 12.059 2.00195C13.049 1.97495 13.667 2.30595 13.793 3.90195C13.808 4.08795 13.924 4.24995 14.095 4.32295C14.616 4.54495 15.136 4.84895 15.683 5.25195C15.876 5.39395 16.141 5.37895 16.318 5.21695C17.822 3.83495 18.53 4.29895 19.125 4.89295C19.72 5.48695 20.185 6.19195 18.802 7.68995C18.639 7.86695 18.624 8.13395 18.767 8.32695C19.167 8.86795 19.483 9.40195 19.704 9.91495C19.777 10.085 19.938 10.201 20.123 10.216C21.71 10.342 22.026 10.971 22.021 11.945C22.016 12.929 21.688 13.567 20.075 13.706C19.893 13.722 19.733 13.835 19.659 14.002Z" fill="#808080"/>
</svg>
