<svg width="15" height="15" viewBox="0 0 15 15" fill="none" xmlns="http://www.w3.org/2000/svg">
<path d="M7.46809 4.88459C6.85743 4.83326 6.27609 5.10193 5.68809 5.69059C4.59876 6.78059 4.59876 7.88526 5.68809 8.97393C6.00876 9.29526 6.51409 9.73526 7.19076 9.78059C7.83476 9.82326 8.42676 9.51926 8.97076 8.97393C10.0601 7.88459 10.0594 6.77926 8.97076 5.69059C8.65009 5.36926 8.14476 4.93593 7.46809 4.88393V4.88459ZM8.02809 8.03193C7.82676 8.23326 7.51676 8.46859 7.29343 8.45126C7.11876 8.43793 6.89609 8.29659 6.63143 8.03193C6.10676 7.50726 6.03343 7.23193 6.63143 6.63326C6.82543 6.43926 7.10209 6.21326 7.33876 6.21326C7.34809 6.21326 7.35743 6.21326 7.36609 6.21393C7.54076 6.22726 7.76343 6.36859 8.02809 6.63326C8.55276 7.15793 8.62609 7.43326 8.02809 8.03193Z" fill="black"/>
<path d="M14.6587 7.302C14.6627 6.498 14.3574 5.52733 12.9447 5.26867C12.8714 5.12867 12.7907 4.988 12.702 4.84667C13.414 3.86067 13.3594 2.946 12.5367 2.12333C11.7134 1.29933 10.7987 1.24533 9.81204 1.96C9.67271 1.872 9.53337 1.792 9.39404 1.72C9.13937 0.312 8.17804 0 7.37604 0C6.24937 0 5.52871 0.594 5.31871 1.74933C5.18004 1.822 5.04004 1.90267 4.89937 1.99067C3.91737 1.28133 3.00204 1.342 2.17071 2.172C1.34204 3.00133 1.28204 3.91733 1.98937 4.89933C1.90071 5.04067 1.81937 5.18133 1.74537 5.32133C0.592705 5.532 0.00603858 6.218 3.85801e-05 7.36333C-0.00396142 8.16733 0.301372 9.138 1.71404 9.39667C1.78737 9.53667 1.86804 9.67733 1.95737 9.81867C1.24471 10.8047 1.29937 11.7193 2.12204 12.542C2.94537 13.366 3.86071 13.42 4.84671 12.7053C4.98604 12.7933 5.12537 12.8733 5.26471 12.9453C5.51937 14.3533 6.48071 14.6653 7.28271 14.6653C8.43004 14.6653 9.13004 14.0713 9.34004 12.916C9.47871 12.8433 9.61871 12.7627 9.75937 12.6747C10.74 13.382 11.6527 13.32 12.4874 12.4933C13.322 11.6667 13.3767 10.748 12.6694 9.76533C12.758 9.624 12.8394 9.48333 12.9134 9.344C14.066 9.13333 14.6527 8.44733 14.6587 7.302ZM12.4127 8.06667C12.17 8.08733 11.958 8.23933 11.86 8.462C11.726 8.766 11.538 9.08467 11.3007 9.408C11.1127 9.66467 11.1327 10.0193 11.348 10.254C12.0634 11.0313 11.8234 11.272 11.5447 11.5507C11.2547 11.8413 11.0247 12.0707 10.2494 11.3533C10.0147 11.1373 9.66071 11.1173 9.40271 11.3053C9.0807 11.5413 8.76337 11.7287 8.45871 11.8613C8.23537 11.9593 8.08337 12.1713 8.06204 12.4153C7.98337 13.3287 7.66204 13.3307 7.29071 13.332C6.91404 13.332 6.61204 13.336 6.54271 12.448C6.52337 12.2007 6.36871 11.9847 6.14071 11.8873C5.83804 11.7573 5.52271 11.5727 5.20404 11.3373C5.08604 11.25 4.94671 11.2073 4.80804 11.2073C4.64537 11.2073 4.48337 11.2667 4.35604 11.384C3.57004 12.1087 3.33471 11.872 3.06337 11.6C2.7907 11.3273 2.55537 11.0913 3.27804 10.3067C3.49471 10.0713 3.51404 9.716 3.32337 9.45867C3.08604 9.138 2.90004 8.822 2.77004 8.52067C2.6727 8.29333 2.45671 8.13867 2.21071 8.11933C1.32737 8.04867 1.32871 7.74933 1.33071 7.37067C1.33271 6.98333 1.33404 6.67733 2.24337 6.59867C2.48604 6.578 2.69804 6.426 2.79604 6.20333C2.93071 5.89867 3.11871 5.58 3.35537 5.25667C3.54337 5 3.52337 4.64533 3.30804 4.41067C2.59271 3.634 2.83337 3.39333 3.11137 3.11467C3.40137 2.82467 3.63137 2.59533 4.40671 3.31133C4.64137 3.528 4.99537 3.54733 5.25271 3.35933C5.57537 3.12333 5.89271 2.93667 6.19737 2.80333C6.42071 2.70533 6.57271 2.49333 6.59404 2.24933C6.67271 1.336 6.99404 1.334 7.36537 1.33267C7.74737 1.33533 8.04404 1.32867 8.11337 2.21667C8.1327 2.464 8.28737 2.68 8.51537 2.77733C8.81804 2.90733 9.13337 3.092 9.45204 3.32733C9.7087 3.51667 10.0647 3.49733 10.2994 3.28133C11.0854 2.55667 11.32 2.79333 11.592 3.06533C11.8647 3.338 12.1007 3.574 11.3774 4.35867C11.1607 4.594 11.1414 4.95 11.3314 5.20667C11.5687 5.52733 11.7547 5.84333 11.8847 6.14467C11.982 6.372 12.198 6.52667 12.444 6.546C13.3274 6.61667 13.326 6.916 13.324 7.29467C13.322 7.682 13.3207 7.988 12.4114 8.06667H12.4127Z" fill="black"/>
</svg>
