<svg width="57" height="56" viewBox="0 0 57 56" fill="none" xmlns="http://www.w3.org/2000/svg">
<rect x="0.5" width="56" height="56" rx="28" fill="#2D2D4C"/>
<path d="M40.5 25.5C40.5 25.464 39.098 19.132 39.098 19.132C38.688 17.288 37.082 16 35.193 16H21.808C19.918 16 18.313 17.288 17.903 19.132C17.903 19.132 16.5 25.464 16.5 25.5C16.5 26.455 16.887 27.321 17.509 27.953C17.507 27.969 17.5 27.983 17.5 28V35.5C17.5 37.981 19.519 40 22 40H35C37.481 40 39.5 37.981 39.5 35.5V28C39.5 27.983 39.492 27.969 39.491 27.953C40.114 27.321 40.5 26.455 40.5 25.5ZM18.879 19.349C19.186 17.966 20.39 17 21.807 17H23.499V21.5C23.499 21.776 23.723 22 23.999 22C24.275 22 24.499 21.776 24.499 21.5V17H32.499V21.5C32.499 21.776 32.723 22 32.999 22C33.275 22 33.499 21.776 33.499 21.5V17H35.191C36.608 17 37.813 17.966 38.12 19.349L39.498 25.553C39.47 26.907 38.359 28 36.998 28H35.998C34.62 28 33.498 26.879 33.498 25.5C33.498 25.224 33.274 25 32.998 25C32.722 25 32.498 25.224 32.498 25.5C32.498 26.879 31.376 28 29.998 28H26.998C25.62 28 24.498 26.879 24.498 25.5C24.498 25.224 24.274 25 23.998 25C23.722 25 23.498 25.224 23.498 25.5C23.498 26.879 22.376 28 20.998 28H19.998C18.637 28 17.526 26.907 17.498 25.553L18.877 19.349H18.879ZM35 39H22C20.07 39 18.5 37.43 18.5 35.5V28.649C18.956 28.868 19.461 29 20 29H21C22.28 29 23.39 28.302 24 27.274C24.61 28.302 25.72 29 27 29H30C31.28 29 32.39 28.302 33 27.274C33.61 28.302 34.72 29 36 29H37C37.539 29 38.044 28.867 38.5 28.649V35.5C38.5 37.43 36.93 39 35 39Z" fill="white"/>
</svg>
