<svg width="16" height="16" viewBox="0 0 16 16" fill="none" xmlns="http://www.w3.org/2000/svg">
<path d="M7.566 16H0V2C0 0.897333 0.897333 0 2 0H10C11.1027 0 12 0.897333 12 2V5.37267C11.7807 5.34867 11.5587 5.33333 11.3333 5.33333C11.108 5.33333 10.886 5.348 10.6667 5.37267V2C10.6667 1.632 10.368 1.33333 10 1.33333H2C1.632 1.33333 1.33333 1.632 1.33333 2V14.6667H6.34533C6.68267 15.1707 7.09533 15.6193 7.566 16ZM7.566 6.66667H2.66667V8H6.34533C6.68267 7.496 7.09533 7.04733 7.566 6.66667ZM2.66667 11.3333H5.33333C5.33333 10.8747 5.38933 10.4293 5.48733 10H2.66667V11.3333ZM16 11.3333C16 13.906 13.906 16 11.3333 16C8.76067 16 6.66667 13.906 6.66667 11.3333C6.66667 8.76067 8.76067 6.66667 11.3333 6.66667C13.906 6.66667 16 8.76067 16 11.3333ZM14.6667 11.3333C14.6667 9.49533 13.1713 8 11.3333 8C9.49533 8 8 9.49533 8 11.3333C8 13.1713 9.49533 14.6667 11.3333 14.6667C13.1713 14.6667 14.6667 13.1713 14.6667 11.3333ZM9.33333 3.33333H2.66667V4.66667H9.33333V3.33333ZM13.0593 9.79467L10.9073 11.9113L9.82067 10.858L8.892 11.8153L10.122 13.0073C10.3313 13.2173 10.6107 13.3333 10.908 13.3333C11.2053 13.3333 11.4847 13.2173 11.69 13.012L13.994 10.746L13.0593 9.79467Z" fill="#2D2D4C"/>
</svg>
