<svg width="16" height="16" viewBox="0 0 16 16" fill="none" xmlns="http://www.w3.org/2000/svg">
<path d="M15.0754 10.0192L16.0187 9.07591L6.94606 0.00390625L6.00339 0.946573L6.75739 1.70057L5.72539 2.73391L3.82673 0.81124L2.87873 1.74857L4.78273 3.67524L0.586061 7.87524C0.211119 8.2503 0.000488281 8.75891 0.000488281 9.28924C0.000488281 9.81957 0.211119 10.3282 0.586061 10.7032L5.29939 15.4172C5.48512 15.603 5.70561 15.7503 5.94828 15.8509C6.19096 15.9514 6.45106 16.0031 6.71373 16.0031C6.9764 16.0031 7.2365 15.9514 7.47917 15.8509C7.72185 15.7503 7.94234 15.603 8.12806 15.4172L14.3001 9.24591L15.0754 10.0192ZM7.18539 14.4719C7.05856 14.5934 6.8897 14.6612 6.71406 14.6612C6.53842 14.6612 6.36956 14.5934 6.24273 14.4719L1.52873 9.75791C1.40375 9.63289 1.33354 9.46335 1.33354 9.28657C1.33354 9.1098 1.40375 8.94026 1.52873 8.81524L5.72006 4.62391L8.85939 7.80057L9.80739 6.86724L6.66206 3.68191L7.70006 2.64324L13.3574 8.30057L7.18539 14.4719ZM14.3334 11.3339C14.3334 11.3339 16.0001 13.4132 16.0001 14.3339C16.0001 14.7759 15.8245 15.1999 15.5119 15.5124C15.1993 15.825 14.7754 16.0006 14.3334 16.0006C13.8914 16.0006 13.4674 15.825 13.1549 15.5124C12.8423 15.1999 12.6667 14.7759 12.6667 14.3339C12.6667 13.5006 14.3334 11.3339 14.3334 11.3339Z" fill="#2D2D4C"/>
</svg>
