<svg width="16" height="16" viewBox="0 0 16 16" fill="none" xmlns="http://www.w3.org/2000/svg">
<g clip-path="url(#clip0_3522_9412)">
<path d="M9.36067 9.094L5.728 6.25133C5.29933 5.91533 4.70133 5.91533 4.27133 6.25133L0.64 9.094C0.233333 9.412 0 9.89 0 10.4067V16.0007H10V10.406C10 9.89 9.76667 9.412 9.36067 9.094ZM9.33333 15.3333H0.666667V10.406C0.666667 10.096 0.806667 9.80867 1.05067 9.618L4.682 6.77533C4.86933 6.62933 5.13067 6.62933 5.31667 6.77533L8.94933 9.618C9.19267 9.80867 9.33267 10.096 9.33267 10.406V15.3333H9.33333ZM3.33333 13.3333H6.66667V10H3.33333V13.3333ZM4 10.6667H6V12.6667H4V10.6667ZM12 8.66667H13.3333V9.33333H12V8.66667ZM12 11.3333H13.3333V12H12V11.3333ZM9.33333 3.33333H10.6667V4H9.33333V3.33333ZM13.3333 4H12V3.33333H13.3333V4ZM9.33333 6H10.6667V6.66667H9.33333V6ZM12 6H13.3333V6.66667H12V6ZM16 1.66667V16H11.3333V15.3333H15.3333V1.66667C15.3333 1.11533 14.8847 0.666667 14.3333 0.666667H8.33333C7.782 0.666667 7.33333 1.11533 7.33333 1.66667V6L6.66667 5.478V1.66667C6.66667 0.747333 7.414 0 8.33333 0H14.3333C15.2527 0 16 0.747333 16 1.66667Z" fill="#2D2D4C"/>
</g>
<defs>
<clipPath id="clip0_3522_9412">
<rect width="16" height="16" fill="white"/>
</clipPath>
</defs>
</svg>
