<svg width="16" height="16" viewBox="0 0 16 16" fill="none" xmlns="http://www.w3.org/2000/svg">
<g clip-path="url(#clip0_3246_5323)">
<path d="M15.7573 6.85367L14.9593 5.363C14.6667 4.81567 14.026 4.557 13.432 4.74967L8.00067 6.521L2.56867 4.74967C1.97334 4.55633 1.334 4.81567 1.04134 5.363L0.250671 6.83967C-0.0239957 7.29633 -0.0759957 7.845 0.108671 8.345C0.292671 8.845 0.689338 9.22833 1.19467 9.397L1.33467 9.44367L1.33067 11.8577C1.33067 13.1517 2.154 14.2963 3.382 14.7057L6.62334 15.7863C7.06534 15.9337 7.52934 16.007 7.99401 16.007C8.45867 16.007 8.92267 15.9337 9.36467 15.7863L12.6087 14.705C13.8373 14.2957 14.6633 13.1523 14.664 11.8603V9.44367L14.8053 9.39633C15.3107 9.22767 15.7073 8.84433 15.8913 8.34433C16.076 7.84433 16.024 7.29567 15.7573 6.85367ZM0.734004 8.11433C0.620004 7.805 0.652004 7.46567 0.830671 7.169L1.62867 5.67833C1.738 5.47367 1.94867 5.35367 2.17067 5.35367C2.234 5.35367 2.298 5.36367 2.36134 5.38433L7.50734 7.06233L6.19267 9.48567C5.93467 9.91567 5.42201 10.1063 4.94801 9.94567L1.406 8.765C1.09334 8.661 0.848671 8.42367 0.734004 8.115V8.11433ZM7.65667 15.325C7.37734 15.2997 7.10134 15.2423 6.83467 15.153L3.59334 14.0723C2.638 13.7537 1.99667 12.8643 1.99734 11.8577L2.00067 9.66567L4.73667 10.5777C4.91934 10.6383 5.10534 10.6677 5.28801 10.6677C5.88134 10.6677 6.44467 10.359 6.77134 9.815L7.66067 8.177L7.65667 15.325ZM13.9973 11.8603C13.9973 12.865 13.354 13.7537 12.398 14.0717L9.15401 15.153C8.88467 15.243 8.60534 15.3003 8.32334 15.3257L8.32734 8.15367L9.23534 9.827C9.55534 10.3617 10.1173 10.6677 10.71 10.6677C10.8933 10.6677 11.08 10.6383 11.2627 10.5777L13.9973 9.66633V11.8603ZM15.266 8.11433C15.1513 8.423 14.9067 8.65967 14.594 8.76433L11.052 9.945C10.5753 10.1043 10.0647 9.91367 9.81467 9.497L8.49334 7.06167L13.6393 5.38367C13.9247 5.28967 14.232 5.41567 14.3727 5.67767L15.1787 7.183C15.3493 7.46567 15.3813 7.805 15.2673 8.11367L15.266 8.11433ZM3.17267 3.90033C3.044 3.76967 3.04534 3.55767 3.17667 3.429L6.36467 0.291C6.75134 -0.0969998 7.38601 -0.0976665 7.77667 0.293L9.03334 1.54967C9.41201 1.211 10.0433 1.221 10.4087 1.58633L12.2447 3.42167C12.3747 3.55167 12.3747 3.763 12.2447 3.893C12.1147 4.023 11.9033 4.023 11.7733 3.893L9.93734 2.05767C9.80734 1.92767 9.59601 1.92767 9.46601 2.05767L6.56667 4.90433C6.50134 4.96833 6.41667 5.00033 6.33267 5.00033C6.24601 5.00033 6.16001 4.967 6.09534 4.901C5.96667 4.76967 5.96867 4.55833 6.09934 4.42967L8.55667 2.017L7.30467 0.765C7.17467 0.635 6.96334 0.635 6.83334 0.765L3.644 3.90367C3.57867 3.96767 3.49467 3.99967 3.41 3.99967C3.324 3.99967 3.23734 3.96633 3.17267 3.90033Z" fill="black" fill-opacity="0.5"/>
</g>
<defs>
<clipPath id="clip0_3246_5323">
<rect width="16" height="16" fill="white"/>
</clipPath>
</defs>
</svg>
