<svg width="24" height="24" viewBox="0 0 24 24" fill="none" xmlns="http://www.w3.org/2000/svg">
<path d="M1 23H21V24H0V6C0 5.114 0.387 4.316 1 3.766V23ZM24 5.165V21H3V3C3 1.346 4.346 0 6 0H18.835L24 5.165ZM8 7H17V1H8V7ZM23 5.579L18.421 1H18V8H7V1H6C4.897 1 4 1.897 4 3V20H23V5.579ZM16 14C16 15.654 14.654 17 13 17C11.346 17 10 15.654 10 14C10 12.346 11.346 11 13 11C14.654 11 16 12.346 16 14ZM15 14C15 12.897 14.103 12 13 12C11.897 12 11 12.897 11 14C11 15.103 11.897 16 13 16C14.103 16 15 15.103 15 14Z" fill="#2D2D4C"/>
</svg>
