<svg width="65" height="64" viewBox="0 0 65 64" fill="none" xmlns="http://www.w3.org/2000/svg">
<g clip-path="url(#clip0_3253_7762)">
<path d="M56.4202 5.30992C46.1688 11.9172 38.025 21.7111 31.6666 32.4005C28.574 28.0474 25.0464 24.1131 21.185 20.6829C18.8186 18.6771 15.6595 21.6813 17.4016 24.3197C21.9352 30.8192 25.1823 38.0784 27.0118 45.5033C28.2711 50.4922 33.9396 49.9569 35.9073 44.9333C41.1617 31.5186 51.4262 20.6475 62.1187 13.3682C67.9324 9.4106 61.9604 1.739 56.421 5.30911L56.4202 5.30992Z" fill="#53B737"/>
<path d="M61.0718 25.1544C61.7686 28.1087 62.0375 31.1892 61.8668 34.2288C61.8428 34.9579 61.7478 35.7924 61.6728 36.5167C61.6589 36.6879 61.4581 37.9291 61.4302 38.1406C61.3329 38.6004 61.1452 39.6334 61.0239 40.0699C57.6361 54.1132 45.4301 63.9513 31.5321 63.9996C13.7163 64.0647 -0.428152 48.4851 0.54762 29.993C1.41137 13.5589 14.2988 0.366952 30.1515 0.00680522C34.6718 -0.0920743 39.2587 0.887074 43.3147 2.9121C44.4975 3.49975 44.999 4.9741 44.4342 6.20487C43.9027 7.3657 42.6101 7.89466 41.4767 7.46056C39.4897 6.73222 37.4462 6.23943 35.3594 6.00871C34.1612 5.88009 32.9273 5.82945 31.7237 5.87366C29.3263 5.9645 26.9112 6.39619 24.636 7.17035C13.8275 10.8329 6.64253 21.7048 7.45297 33.539C8.27577 46.7093 18.8934 57.0852 31.5576 57.2444C42.726 57.4301 52.6367 49.728 55.7981 38.5996C55.9248 38.2354 56.0987 37.4074 56.2014 37.0312C56.247 36.8101 56.4231 35.9033 56.4587 35.7023C56.5437 35.1066 56.6588 34.4193 56.7044 33.818C56.7244 33.6243 56.7708 33.1934 56.7793 33.0044C56.8195 32.1877 56.8697 31.3677 56.8481 30.5493C56.8257 29.087 56.6827 27.6256 56.434 26.181C56.0029 23.0393 60.2289 22.1028 61.0718 25.156V25.1544Z" fill="#53B737"/>
</g>
<defs>
<clipPath id="clip0_3253_7762">
<rect width="64" height="64" fill="white" transform="translate(0.5)"/>
</clipPath>
</defs>
</svg>
