<svg width="65" height="64" viewBox="0 0 65 64" fill="none" xmlns="http://www.w3.org/2000/svg">
<path d="M35.1667 54.6667C35.1667 55.4027 34.5693 56 33.8333 56H12.5C5.884 56 0.5 50.616 0.5 44V12C0.5 5.384 5.884 0 12.5 0H44.5C51.116 0 56.5 5.384 56.5 12V33.3333C56.5 34.0693 55.9027 34.6667 55.1667 34.6667C54.4307 34.6667 53.8333 34.0693 53.8333 33.3333V12C53.8333 6.85333 49.6467 2.66667 44.5 2.66667H12.5C7.35333 2.66667 3.16667 6.85333 3.16667 12V34.2293L13.3293 24.0667C16.8547 20.5413 23.004 20.5413 26.5293 24.0667L45.4467 43.0587C45.9667 43.5787 45.964 44.424 45.4467 44.944C45.1853 45.2027 44.844 45.3333 44.5053 45.3333C44.164 45.3333 43.8227 45.2027 43.5613 44.9413L24.644 25.952C22.1293 23.4373 17.7347 23.4347 15.2173 25.952L3.16667 38V44C3.16667 49.1467 7.35333 53.3333 12.5 53.3333H33.8333C34.5693 53.3333 35.1667 53.9307 35.1667 54.6667ZM45.8333 14.6667C45.8333 18.344 42.8413 21.3333 39.1667 21.3333C35.492 21.3333 32.5 18.344 32.5 14.6667C32.5 10.9893 35.492 8 39.1667 8C42.8413 8 45.8333 10.9893 45.8333 14.6667ZM43.1667 14.6667C43.1667 12.4613 41.372 10.6667 39.1667 10.6667C36.9613 10.6667 35.1667 12.4613 35.1667 14.6667C35.1667 16.872 36.9613 18.6667 39.1667 18.6667C41.372 18.6667 43.1667 16.872 43.1667 14.6667ZM63.1667 50.6667H53.8333V41.3333C53.8333 40.5973 53.236 40 52.5 40C51.764 40 51.1667 40.5973 51.1667 41.3333V50.6667H41.8333C41.0973 50.6667 40.5 51.264 40.5 52C40.5 52.736 41.0973 53.3333 41.8333 53.3333H51.1667V62.6667C51.1667 63.4027 51.764 64 52.5 64C53.236 64 53.8333 63.4027 53.8333 62.6667V53.3333H63.1667C63.9027 53.3333 64.5 52.736 64.5 52C64.5 51.264 63.9027 50.6667 63.1667 50.6667Z" fill="black" fill-opacity="0.8"/>
</svg>
