<svg width="16" height="17" viewBox="0 0 16 17" fill="none" xmlns="http://www.w3.org/2000/svg">
<path d="M8.22533 15.7879C8.18133 15.7465 6.44467 14.0839 5.414 11.7005H6.82267L6.59467 11.0339H5.15333C4.86133 10.2032 4.66667 9.30519 4.66667 8.36719C4.66667 7.42919 4.86133 6.53185 5.15467 5.70052H10.8387C11.002 6.16519 11.1373 6.64852 11.222 7.15119L11.934 7.39452C11.862 6.80519 11.7233 6.24052 11.5493 5.70052H14.8247C15.1493 6.52852 15.334 7.42585 15.334 8.36719C15.334 8.43052 15.3267 8.49185 15.3247 8.55452L15.9793 8.77852C15.9867 8.64119 16 8.50585 16 8.36719C16 3.95585 12.4113 0.367188 8 0.367188C3.58867 0.367188 0 3.95585 0 8.36719C0 12.7785 3.58867 16.3672 8 16.3672C8.13933 16.3672 8.27467 16.3532 8.412 16.3465L8.228 15.7879H8.22467H8.22533ZM5.41533 5.03385C6.23467 3.14185 7.492 1.70785 8 1.17519C8.50733 1.70852 9.76067 3.14385 10.5773 5.03385H5.41533ZM14.524 5.03385H11.3093C10.6 3.25719 9.50467 1.84719 8.826 1.08385C11.3153 1.36452 13.4273 2.89652 14.524 5.03385ZM7.17333 1.08385C6.494 1.84652 5.39733 3.25519 4.686 5.03385H1.476C2.57267 2.89652 4.684 1.36452 7.17333 1.08385ZM1.176 5.70052H4.446C4.17667 6.53252 4 7.42652 4 8.36719C4 9.30785 4.17667 10.2019 4.446 11.0339H1.176C0.851333 10.2059 0.666667 9.30852 0.666667 8.36719C0.666667 7.42585 0.851333 6.52852 1.176 5.70052ZM1.476 11.7005H4.68533C5.39667 13.4799 6.49333 14.8879 7.17333 15.6505C4.684 15.3699 2.57267 13.8379 1.476 11.7005ZM9.82333 16.3532L11.5087 11.8759L15.986 10.1905L6.61867 6.98585L9.82333 16.3532ZM10.9913 11.3592L9.85333 14.3819L7.68933 8.05719L14.014 10.2205L10.9913 11.3592Z" fill="black"/>
</svg>
